<svg width="308" height="206" viewBox="0 0 308 206" fill="none" xmlns="http://www.w3.org/2000/svg">
    <path opacity="0.5"
        d="M2.88282 -51L2.88281 256.2M28.0828 -51L28.0828 256.2M53.2828 -51L53.2828 256.2M78.4829 -51L78.4829 256.2M103.683 -51L103.683 256.2M128.883 -51L128.883 256.2M154.083 -51L154.083 256.2M179.283 -51L179.283 256.2M204.483 -51L204.483 256.2M229.683 -51L229.683 256.2M254.883 -51L254.883 256.2M280.083 -51L280.083 256.2M305.283 -51L305.283 256.2M0.333008 253.65L307.533 253.65M0.333008 228.45L307.533 228.45M0.333008 203.25H307.533M0.333008 178.05L307.533 178.05M0.333008 152.85L307.533 152.85M0.333008 127.65L307.533 127.65M0.333008 102.45L307.533 102.45M0.333008 77.2499L307.533 77.2499M0.333008 52.0499L307.533 52.0499M0.333008 26.8499L307.533 26.8499M0.333008 1.64984L307.533 1.64985M0.333008 -23.5502L307.533 -23.5502M0.333008 -48.7502L307.533 -48.7502"
        stroke="url(#paint0_radial_86_2387)" stroke-width="0.3" />
    <defs>
        <radialGradient id="paint0_radial_86_2387" cx="0" cy="0" r="1"
            gradientUnits="userSpaceOnUse"
            gradientTransform="translate(153.933 102.6) rotate(90) scale(153.6)">
            <stop stop-color="#4A89F2" />
            <stop offset="1" stop-color="#4A89F2" stop-opacity="0" />
        </radialGradient>
    </defs>
</svg>