<svg width="97" height="12" viewBox="0 0 97 12" fill="none" xmlns="http://www.w3.org/2000/svg">
    <path
        d="M4.84663 1.1833C4.85526 1.31275 4.87106 1.45365 4.87106 1.59311C4.87394 2.46729 4.87106 3.34146 4.87106 4.21564C4.87106 4.31193 4.86963 4.40686 4.8725 4.50315C4.884 4.86121 4.91849 4.90145 5.26343 4.90288C6.11283 4.90717 6.96223 4.90717 7.81161 4.90288C8.16661 4.90145 8.19392 4.87128 8.19535 4.50465C8.19971 3.54705 8.19678 2.58803 8.19678 1.6305C8.19678 1.48811 8.19678 1.34721 8.19678 1.1675C8.35491 1.15313 8.47994 1.13155 8.60497 1.13011C9.33513 1.12725 10.0638 1.12868 10.7939 1.13011C11.225 1.13011 11.2308 1.13447 11.2308 1.57582C11.2308 4.27025 11.2308 6.96469 11.2308 9.65912C11.2308 9.97108 11.2365 10.2817 11.2279 10.5936C11.2207 10.8237 11.1819 10.8683 10.9491 10.8697C10.0882 10.874 9.22733 10.8683 8.36498 10.864C8.33189 10.864 8.29743 10.8438 8.21408 10.818C8.16375 9.61881 8.22702 8.40245 8.17812 7.14869C8.03007 7.12424 7.89497 7.084 7.75992 7.084C6.94642 7.07828 6.13295 7.07828 5.31948 7.08114C4.92568 7.08257 4.8725 7.14011 4.87106 7.54843C4.86819 8.49451 4.87106 9.44053 4.87106 10.3866C4.87106 10.5275 4.85526 10.6684 4.84519 10.8395C4.70722 10.8525 4.59224 10.8711 4.47726 10.8711C3.72415 10.874 2.96961 10.874 2.2165 10.8711C1.80977 10.8697 1.76377 10.8237 1.76377 10.4111C1.76234 8.32767 1.76665 6.24435 1.75946 4.16096C1.75802 3.67072 1.74366 3.17898 1.6991 2.69011C1.65598 2.22717 1.43321 1.83609 1.07678 1.53843C0.954615 1.43635 0.869819 1.35014 0.914373 1.18766C1.18745 1.11432 4.47583 1.1071 4.84663 1.1848V1.1833Z"
        fill="#AD3DAA" />
    <path
        d="M68.1035 3.82461C67.9098 3.70237 67.7791 3.59743 67.6321 3.53124C67.0801 3.27968 66.5125 3.07696 65.8931 3.07982C65.7882 3.07982 65.6833 3.03808 65.5784 3.02371C65.449 3.00505 65.3067 2.95329 65.1917 2.98782C64.7275 3.13014 64.2173 3.07117 63.7804 3.32565C63.3233 3.59164 62.9094 3.90653 62.6191 4.35366C62.3374 4.78792 62.1535 5.25664 62.1922 5.79148C62.2052 5.96976 62.1966 6.1509 62.1966 6.33062C62.1966 7.11136 62.5257 7.74256 63.079 8.27025C63.5073 8.67857 64.0218 8.88702 64.6125 8.89853C64.8842 8.90431 65.1573 8.90282 65.4289 8.89853C65.4734 8.89853 65.5166 8.8655 65.5942 8.8324C65.5942 8.45998 65.5971 8.0804 65.5942 7.70088C65.5928 7.50674 65.4562 7.47221 65.2981 7.47221C64.9632 7.47221 64.6298 7.47221 64.2446 7.47221C64.1843 6.83529 64.2173 6.22138 64.2245 5.57003C64.361 5.55423 64.4746 5.52978 64.5881 5.52835C65.7839 5.52549 66.9813 5.52549 68.177 5.52835C68.5359 5.52835 68.6568 5.629 68.6601 5.99135C68.6672 7.0927 68.6555 8.19398 68.651 9.29683C68.651 9.45209 68.6627 9.60736 68.6542 9.76262C68.6425 9.96392 68.6308 10.1681 68.5879 10.3651C68.556 10.5074 68.454 10.6008 68.2947 10.6454C67.9442 10.7432 67.599 10.8668 67.2524 10.979C67.218 10.9905 67.1835 10.9991 67.1477 11.0049C66.086 11.1587 65.0193 11.3198 63.9442 11.1961C63.5246 11.1473 63.1135 11.0135 62.7025 10.9042C62.4394 10.8352 62.1836 10.7432 61.9249 10.657C61.4391 10.4945 61.0137 10.2228 60.6329 9.88629C60.3368 9.62608 60.0451 9.3543 59.7878 9.05671C59.5521 8.78351 59.3451 8.48156 59.2359 8.12357C59.164 7.88774 59.016 7.67351 58.9642 7.43489C58.8435 6.87989 58.6279 6.30766 58.7314 5.7541C58.8148 5.30839 58.8421 4.8454 59.0088 4.39969C59.1841 3.93098 59.3595 3.4709 59.6585 3.07696C60.1586 2.41988 60.7694 1.87925 61.5254 1.52126C61.866 1.36021 62.2181 1.23654 62.5817 1.12438C63.539 0.828223 64.5134 0.684467 65.5022 0.799485C66.0242 0.859887 66.5587 0.908717 67.0691 1.09994C67.309 1.19057 67.5574 1.26385 67.796 1.3645C68.0795 1.48387 68.1464 1.57015 68.1484 1.86774C68.151 2.41845 68.1497 2.96909 68.1484 3.51973C68.1484 3.59886 68.1282 3.67792 68.1081 3.82603L68.1035 3.82461Z"
        fill="#AD3DAA" />
    <path
        d="M58.4626 10.8352C58.2916 10.851 58.1666 10.8711 58.0401 10.8711C57.2266 10.874 56.4132 10.874 55.6011 10.8711C55.2088 10.8697 55.1815 10.8165 55.0909 10.4297C55.0018 10.0516 54.8667 9.68349 54.7403 9.31542C54.6842 9.15151 54.5577 9.08539 54.3766 9.08682C53.5272 9.0926 52.6778 9.08396 51.8298 9.08968C51.5568 9.09111 51.3987 9.25073 51.3441 9.51243C51.3138 9.65905 51.2506 9.79994 51.2018 9.94233C51.1831 9.99838 51.1629 10.0545 51.1457 10.112C51.0724 10.3578 51.0006 10.6051 50.923 10.8683C49.9945 10.874 49.1048 10.874 48.1462 10.8683C48.2066 10.6296 48.2411 10.4614 48.2943 10.2975C48.3647 10.0847 48.461 9.8805 48.5271 9.66626C48.6219 9.36145 48.6967 9.05086 48.7858 8.7432C48.8634 8.47148 48.9439 8.1997 49.0316 7.93085C49.1408 7.59731 49.2558 7.26513 49.3736 6.93444C49.4771 6.64693 49.595 6.36508 49.6927 6.07756C49.7847 5.80865 49.8522 5.53264 49.9442 5.26372C50.0635 4.91152 50.1425 4.54774 50.3135 4.20698C50.4472 3.93956 50.4846 3.62467 50.5723 3.33137C50.6341 3.12864 50.7059 2.92878 50.7749 2.72748C50.8827 2.41403 50.9934 2.1035 51.0983 1.78861C51.1285 1.69947 51.1371 1.60168 51.1572 1.50968C51.2118 1.25091 51.3369 1.13153 51.5927 1.1301C52.6922 1.12581 53.7931 1.12581 54.8926 1.1301C55.1987 1.1301 55.2159 1.16892 55.2964 1.46943C55.364 1.71963 55.4603 1.96117 55.5436 2.20558C55.6601 2.55063 55.7707 2.89718 55.8915 3.23937C55.9992 3.5499 56.1214 3.85614 56.2292 4.16673C56.314 4.41257 56.3815 4.66419 56.4678 4.90859C56.5698 5.19331 56.6906 5.47224 56.7911 5.75832C56.886 6.02574 56.9694 6.29895 57.0527 6.57073C57.1979 7.04517 57.3244 7.5254 57.4853 7.99412C57.6405 8.4499 57.8403 8.88988 57.9984 9.34416C58.1033 9.64468 58.1695 9.95956 58.26 10.2672C58.2859 10.3564 58.3347 10.4398 58.3678 10.5275C58.3994 10.6109 58.4224 10.6986 58.4641 10.8323L58.4626 10.8352ZM53.0802 3.7181C53.0414 3.7181 53.0012 3.71524 52.9624 3.71381C52.8805 4.00425 52.7913 4.29326 52.7181 4.58656C52.6318 4.92875 52.5945 5.2896 52.468 5.61457C52.3127 6.01137 52.1891 6.40968 52.1116 6.82664C52.0526 7.14153 52.1216 7.23639 52.445 7.24211C52.8273 7.25076 53.2082 7.24068 53.5905 7.2479C53.7989 7.25219 53.9569 7.17742 54.0906 6.99914C53.7558 5.90786 53.418 4.8123 53.0816 3.71667L53.0802 3.7181Z"
        fill="#AD3DAA" />
    <path
        d="M31.3617 10.8166C31.3617 10.6657 31.3617 10.5262 31.3617 10.3853C31.3617 8.20563 31.3502 6.02595 31.3718 3.84769C31.3775 3.30277 31.2942 2.77651 31.1491 2.26755C31.0686 1.98433 30.922 1.67809 30.6187 1.50982C30.5023 1.44513 30.3485 1.37471 30.4204 1.16047C30.5052 1.1504 30.5971 1.13167 30.6891 1.13167C32.6266 1.1346 34.5653 1.12166 36.5028 1.15183C37.8422 1.17198 38.8239 1.83335 39.3743 3.0425C39.5784 3.49256 39.7293 4.01304 39.6273 4.5378C39.4275 5.5673 38.9748 6.41411 37.986 6.91735C37.5778 7.12443 37.1725 7.24088 36.7241 7.31852C36.1147 7.42203 35.511 7.40909 34.9031 7.41773C34.5179 7.42203 34.5093 7.43067 34.5079 7.83177C34.5064 8.6815 34.5079 9.53272 34.5079 10.3825C34.5079 10.5233 34.5079 10.6642 34.5079 10.7893C34.2089 10.89 31.8619 10.9115 31.3647 10.8195L31.3617 10.8166ZM34.5366 5.46087C34.9175 5.52699 35.2768 5.55144 35.5987 5.44507C36.027 5.3056 36.3231 5.15177 36.3547 4.53637C36.3677 4.29912 36.3504 4.05907 36.3288 3.82182C36.3073 3.58313 36.1636 3.42787 35.9652 3.2927C35.5139 2.98217 35.0339 3.12735 34.5165 3.12306C34.5093 3.92389 34.4806 4.68305 34.5352 5.45944L34.5366 5.46087Z"
        fill="#AD3DAA" />
    <path
        d="M12.7327 1.19507C12.9483 1.1649 13.0719 1.13324 13.1955 1.13324C15.577 1.13038 17.9585 1.13038 20.34 1.13038C20.4334 1.13038 20.5268 1.14761 20.6691 1.16198C20.6691 1.35176 20.6691 1.52719 20.6691 1.70404C20.6691 2.08797 20.672 2.47041 20.6691 2.85428C20.6662 3.15044 20.6375 3.1821 20.3385 3.18783C19.9318 3.19504 19.525 3.18932 19.1183 3.18932C18.5793 3.18932 18.0418 3.18783 17.5029 3.18932C17.408 3.18932 17.3089 3.18497 17.2169 3.20512C16.9984 3.25401 16.9165 3.35609 16.9136 3.57748C16.9093 4.00596 16.9136 4.433 16.9136 4.90887H20.4535V6.88582H16.9424C16.9309 7.09863 16.9151 7.26254 16.9122 7.42788C16.9078 7.73991 16.9093 8.05043 16.9122 8.36246C16.9165 8.696 17.0243 8.80959 17.362 8.82253C17.6136 8.83261 17.865 8.82975 18.1166 8.82396C18.6297 8.81245 19.1427 8.79379 19.6558 8.78229C19.9045 8.77656 20.1531 8.77364 20.4017 8.78514C20.4909 8.7895 20.5785 8.84269 20.6777 8.87864V10.8354C20.5469 10.8498 20.4219 10.8757 20.2969 10.8757C18.2977 10.8771 16.2999 10.8757 14.3007 10.8757C14.2174 10.8757 14.1326 10.8743 14.0492 10.8714C13.8796 10.8656 13.7804 10.7909 13.7862 10.6068C13.7891 10.5105 13.7862 10.4156 13.7862 10.3193C13.7862 8.12664 13.7862 5.93402 13.7833 3.74282C13.7833 3.38483 13.7718 3.02391 13.733 2.66735C13.6827 2.19148 13.47 1.79753 13.0719 1.51282C12.9713 1.44091 12.8879 1.34318 12.7342 1.19936L12.7327 1.19507Z"
        fill="#AD3DAA" />
    <path
        d="M48.3428 1.15625C48.4333 1.53297 48.4261 3.18353 48.3341 3.50563C48.2177 3.51135 48.0898 3.52286 47.9619 3.52286C47.3525 3.52429 46.7417 3.52143 46.1323 3.52429C45.7802 3.52572 45.7385 3.56597 45.7356 3.91538C45.7299 4.44157 45.7342 4.96926 45.7342 5.49552C45.7342 7.08711 45.7342 8.6802 45.7342 10.2719C45.7342 10.3681 45.7385 10.4645 45.7313 10.5594C45.7127 10.7823 45.6451 10.8556 45.4194 10.8671C45.2053 10.8771 44.9897 10.87 44.7741 10.87C44.1877 10.87 43.6028 10.8728 43.0164 10.87C42.6125 10.87 42.5967 10.8542 42.5967 10.4415C42.5953 8.3711 42.5953 6.29922 42.5953 4.22883C42.5953 3.75816 42.3648 3.52286 41.904 3.52286C41.3061 3.52286 40.7082 3.52286 40.1103 3.51857C40.0514 3.51857 39.9939 3.50563 39.8976 3.49412C39.8603 2.7206 39.8789 1.95136 39.8832 1.15482H48.3456L48.3428 1.15625Z"
        fill="#AD3DAA" />
    <path
        d="M25.9914 8.87141C26.1596 8.88578 26.2875 8.90451 26.414 8.90451C27.3582 8.90737 28.3039 8.90737 29.2482 8.9088C29.3445 8.9088 29.4393 8.91023 29.5356 8.91315C29.6607 8.91601 29.7541 8.97641 29.7555 9.10151C29.7627 9.67231 29.7584 10.2431 29.7584 10.8024C29.4537 10.8872 23.3742 10.9102 22.8755 10.8311C22.8683 10.6917 22.8525 10.5436 22.8525 10.3941C22.8511 8.0116 22.8525 5.62919 22.8496 3.24678C22.8496 2.76369 22.7074 2.31078 22.4831 1.88952C22.4099 1.75149 22.2747 1.64511 22.1655 1.52724C22.0807 1.4366 21.9916 1.35039 21.8594 1.21664C22.0175 1.17783 22.1037 1.13901 22.1914 1.13901C23.3987 1.13615 24.6074 1.13758 25.8146 1.13901C25.8606 1.13901 25.9066 1.15767 25.9928 1.17783V8.87434L25.9914 8.87141Z"
        fill="#AD3DAA" />
    <path
        d="M87.6596 2.58049C87.5906 2.61072 87.5607 2.63517 87.5276 2.63803C86.8345 2.67684 86.2096 2.95291 85.6388 3.29654C85.0757 3.6373 84.6115 4.12468 84.3384 4.75445C84.3234 4.78611 84.3182 4.8235 84.3163 4.85939C84.315 4.90685 84.3221 4.95288 84.3254 5.00321C84.4691 5.09378 84.5926 5.05496 84.7305 4.98884C84.8657 4.92408 85.0152 4.88819 85.1615 4.84788C85.2981 4.81056 85.4379 4.77746 85.577 4.75731C85.6791 4.74151 85.7857 4.73579 85.8878 4.74873C86.0282 4.76596 86.1635 4.81914 86.3046 4.83208C87.2057 4.91407 87.8117 5.41153 88.2961 6.14767C88.6946 6.75299 88.6959 7.40721 88.6686 8.07287C88.6199 9.21589 87.9885 10.0009 87.049 10.5689C86.694 10.7845 86.2987 10.8981 85.8975 11.0174C85.5165 11.131 85.1505 11.1497 84.7721 11.144C84.1557 11.1339 83.5881 10.9226 83.0387 10.6609C82.5978 10.451 82.1824 10.1965 81.9106 9.77811C81.7064 9.46322 81.5712 9.1023 81.3586 8.79464C81.1362 8.4711 81.2422 8.09159 81.1174 7.76806C80.9834 7.42587 81.0127 7.08797 81.0082 6.74434C81.0082 6.6394 81.0439 6.53446 81.0673 6.42946C81.0946 6.30293 81.1635 6.17211 81.1505 6.04988C81.1044 5.63584 81.2838 5.27206 81.4165 4.91264C81.6018 4.40361 81.8157 3.89607 82.1648 3.46474C82.5907 2.93997 83.0432 2.45253 83.5991 2.05286C83.9587 1.79402 84.3254 1.56256 84.7292 1.39435C85.0107 1.27647 85.3065 1.19162 85.5972 1.09098C85.6979 1.05645 85.7968 1.0162 85.9001 0.986035C86.458 0.822123 86.6765 0.809185 86.9437 1.30807C87.1492 1.69337 87.3982 2.05429 87.6251 2.42808C87.6478 2.46547 87.6465 2.51729 87.6622 2.58341L87.6596 2.58049ZM85.9034 7.98087C85.9021 7.72924 85.7623 7.20012 85.6706 7.0578C85.38 6.60774 84.7753 6.5474 84.3065 6.91547C84.1674 7.0247 84.0777 7.14551 84.0881 7.33387C84.1011 7.57255 84.0809 7.81266 84.0978 8.05128C84.1271 8.44094 84.2805 8.77448 84.564 9.05634C84.9073 9.39853 85.4593 9.22311 85.6615 8.86369C85.813 8.5962 85.9619 8.2871 85.9021 7.9823L85.9034 7.98087Z"
        fill="#66288F" />
    <path
        d="M73.5041 3.28094C73.4885 3.17164 73.4794 3.10123 73.4664 3.03361C73.4105 2.74317 73.3428 2.45423 73.2986 2.16236C73.27 1.97543 73.2752 1.78421 73.2642 1.57284C73.6491 1.38734 74.0242 1.22921 74.4052 1.07252C74.9195 0.859714 75.4715 0.97473 75.9774 0.779154C76.0879 0.736047 76.2362 0.776294 76.3655 0.793589C76.5294 0.81511 76.6932 0.882729 76.8558 0.879803C77.4279 0.866864 77.8993 1.13721 78.3818 1.38591C78.7582 1.58005 79.0859 1.83018 79.2517 2.22705C79.5059 2.83667 79.7185 3.45636 79.4214 4.12202C79.3492 4.28164 79.3336 4.46564 79.2719 4.63248C79.1353 4.99906 78.8519 5.22916 78.5157 5.40022C78.4221 5.44768 78.3259 5.49515 78.3707 5.60581C78.4052 5.69352 78.4799 5.79995 78.5619 5.83012C79.0879 6.0257 79.3564 6.43831 79.5976 6.91424C79.8655 7.44479 79.8291 7.99401 79.7413 8.52742C79.647 9.10543 79.3031 9.57844 78.8805 9.99684C78.4897 10.3836 78.0086 10.5878 77.5151 10.7948C77.1991 10.9286 76.8727 10.9602 76.5424 10.9975C76.3298 11.022 76.1211 11.078 75.9098 11.1054C75.7823 11.1212 75.6471 11.1226 75.519 11.1054C75.2375 11.0665 74.9572 10.9803 74.6751 10.9702C74.1478 10.9529 73.6881 10.7273 73.2167 10.5418C73.1432 10.513 73.0685 10.3764 73.0672 10.2901C73.0613 9.92064 73.0424 9.55114 73.1634 9.18879C73.2336 8.97748 73.2525 8.7503 73.2941 8.5375C73.5743 8.6568 73.8376 8.78333 74.1107 8.87969C74.309 8.94867 74.5203 9.00336 74.7284 9.01915C75.0379 9.0436 75.3506 9.01915 75.6614 9.03066C76.5209 9.06369 77.1588 8.04004 76.6269 7.24207C76.5151 7.0738 76.3252 6.90416 76.1399 6.85098C75.7563 6.74025 75.3779 6.59357 74.9559 6.62524C74.4455 6.66262 74.402 6.69714 74.4098 6.07888C74.4137 5.76829 74.402 5.45633 74.4137 5.14574C74.4221 4.91141 74.4644 4.87546 74.6913 4.86395C74.8825 4.8553 75.0749 4.84379 75.2648 4.86395C75.6139 4.89698 75.9228 4.76187 76.2277 4.63534C76.3584 4.58066 76.4995 4.45127 76.5521 4.32046C76.7849 3.73815 76.7017 2.93589 75.8252 2.8381C75.125 2.76047 74.4481 2.8381 73.8233 3.20188C73.7381 3.25071 73.6276 3.25363 73.5067 3.2838L73.5041 3.28094Z"
        fill="#66288F" />
    <path
        d="M95.7615 1.14572C95.7687 1.30099 95.7797 1.4649 95.7817 1.62881C95.7843 1.96379 95.7869 2.30026 95.7817 2.63523C95.7758 2.9602 95.7271 3.01052 95.4033 3.01195C94.7206 3.01624 94.0392 3.01195 93.3565 3.01481C92.9384 3.01624 92.8909 3.05798 92.8337 3.47781C92.8123 3.63164 92.8077 3.78834 92.8103 3.94367C92.8162 4.22975 92.8922 4.32754 93.1725 4.38501C93.348 4.42097 93.5275 4.44255 93.7063 4.45406C94.5106 4.50582 95.1575 4.83793 95.6146 5.51517C95.7323 5.68909 95.8733 5.85157 95.9696 6.03707C96.2615 6.60065 96.2199 7.21462 96.2023 7.82137C96.1984 7.95219 96.1737 8.08444 96.1763 8.21532C96.1854 8.62507 96.0216 8.97305 95.7784 9.28501C95.5385 9.59274 95.3044 9.91192 95.0184 10.1707C94.6777 10.4799 94.2563 10.6596 93.8084 10.8019C92.9144 11.0851 92.0112 11.0133 91.112 10.9298C90.6706 10.8896 90.2408 10.717 89.8299 10.533C89.6673 10.4597 89.6777 10.2756 89.7375 10.152C89.8799 9.85724 89.8643 9.54814 89.8799 9.23904C89.8916 9.02045 89.9235 8.81057 90.0984 8.65673C90.3227 8.73001 90.5438 8.7789 90.744 8.8724C91.2499 9.10816 91.7804 9.05354 92.2947 8.98306C92.874 8.904 93.3409 8.3332 93.3441 7.74946C93.3467 7.07659 92.8435 6.46411 92.1699 6.41229C91.6712 6.37497 91.1667 6.41236 90.6634 6.41951C90.5568 6.41951 90.4508 6.43102 90.35 6.43823C90.2512 6.17075 90.324 4.20101 90.3604 3.79126C90.4391 2.91416 90.458 2.0314 90.5009 1.16581C90.8227 1.07667 95.3818 1.06373 95.7615 1.14572Z"
        fill="#66288F" />
</svg>
    