<svg width="20" height="20" viewBox="0 0 20 20" fill="none" xmlns="http://www.w3.org/2000/svg">
    <mask id="mask0_86_2189" style="mask-type:alpha" maskUnits="userSpaceOnUse" x="0" y="0"
        width="20" height="20">
        <rect width="20" height="20" fill="#D9D9D9" />
    </mask>
    <g mask="url(#mask0_86_2189)">
        <path
            d="M14.166 18.3332C13.9299 18.3332 13.732 18.2533 13.5723 18.0936C13.4125 17.9339 13.3327 17.7359 13.3327 17.4998V16.4582C12.791 16.2776 12.3049 16.0033 11.8743 15.6353C11.4438 15.2672 11.1035 14.8262 10.8535 14.3123C10.7424 14.104 10.7424 13.8957 10.8535 13.6873C10.9646 13.479 11.1313 13.3262 11.3535 13.229C11.548 13.1457 11.7424 13.1526 11.9368 13.2498C12.1313 13.3471 12.2841 13.4929 12.3952 13.6873C12.6174 14.0901 12.923 14.4096 13.3118 14.6457C13.7007 14.8818 14.1243 14.9998 14.5827 14.9998H17.0827C17.4299 14.9998 17.725 15.1214 17.9681 15.3644C18.2112 15.6075 18.3327 15.9026 18.3327 16.2498V17.4998C18.3327 17.7359 18.2528 17.9339 18.0931 18.0936C17.9334 18.2533 17.7355 18.3332 17.4993 18.3332H14.166ZM15.8327 14.1665C15.3743 14.1665 14.982 14.0033 14.6556 13.6769C14.3292 13.3505 14.166 12.9582 14.166 12.4998C14.166 12.0415 14.3292 11.6491 14.6556 11.3228C14.982 10.9964 15.3743 10.8332 15.8327 10.8332C16.291 10.8332 16.6834 10.9964 17.0098 11.3228C17.3362 11.6491 17.4993 12.0415 17.4993 12.4998C17.4993 12.9582 17.3362 13.3505 17.0098 13.6769C16.6834 14.0033 16.291 14.1665 15.8327 14.1665ZM2.49935 9.1665C2.26324 9.1665 2.06532 9.08664 1.9056 8.92692C1.74588 8.7672 1.66602 8.56928 1.66602 8.33317V7.08317C1.66602 6.73595 1.78754 6.44081 2.0306 6.19775C2.27365 5.9547 2.56879 5.83317 2.91602 5.83317H5.41602C5.87435 5.83317 6.29796 5.71512 6.68685 5.479C7.07574 5.24289 7.38129 4.92345 7.60352 4.52067C7.71463 4.32623 7.8674 4.16998 8.06185 4.05192C8.25629 3.93386 8.45768 3.90956 8.66602 3.979C8.90213 4.04845 9.07574 4.18039 9.18685 4.37484C9.29796 4.56928 9.31185 4.76373 9.22852 4.95817C8.9924 5.51373 8.65213 5.99289 8.20768 6.39567C7.76324 6.79845 7.24935 7.09706 6.66602 7.2915V8.33317C6.66602 8.56928 6.58615 8.7672 6.42643 8.92692C6.26671 9.08664 6.06879 9.1665 5.83268 9.1665H2.49935ZM4.16602 4.99984C3.70768 4.99984 3.31532 4.83664 2.98893 4.51025C2.66254 4.18387 2.49935 3.7915 2.49935 3.33317C2.49935 2.87484 2.66254 2.48248 2.98893 2.15609C3.31532 1.8297 3.70768 1.6665 4.16602 1.6665C4.62435 1.6665 5.01671 1.8297 5.3431 2.15609C5.66949 2.48248 5.83268 2.87484 5.83268 3.33317C5.83268 3.7915 5.66949 4.18387 5.3431 4.51025C5.01671 4.83664 4.62435 4.99984 4.16602 4.99984ZM8.33268 11.6665C8.09657 11.6665 7.89865 11.5866 7.73893 11.4269C7.57921 11.2672 7.49935 11.0693 7.49935 10.8332C7.49935 8.97206 8.14518 7.39567 9.43685 6.104C10.7285 4.81234 12.3049 4.1665 14.166 4.1665C14.4021 4.1665 14.6 4.24637 14.7598 4.40609C14.9195 4.56581 14.9993 4.76373 14.9993 4.99984C14.9993 5.23595 14.9195 5.43387 14.7598 5.59359C14.6 5.75331 14.4021 5.83317 14.166 5.83317C12.7771 5.83317 11.5966 6.31928 10.6243 7.2915C9.65213 8.26373 9.16602 9.44428 9.16602 10.8332C9.16602 11.0693 9.08615 11.2672 8.92643 11.4269C8.76671 11.5866 8.56879 11.6665 8.33268 11.6665ZM11.666 11.6665C11.4299 11.6665 11.232 11.5866 11.0723 11.4269C10.9125 11.2672 10.8327 11.0693 10.8327 10.8332C10.8327 9.9165 11.1591 9.13178 11.8118 8.479C12.4646 7.82623 13.2493 7.49984 14.166 7.49984C14.4021 7.49984 14.6 7.5797 14.7598 7.73942C14.9195 7.89914 14.9993 8.09706 14.9993 8.33317C14.9993 8.56928 14.9195 8.7672 14.7598 8.92692C14.6 9.08664 14.4021 9.1665 14.166 9.1665C13.7077 9.1665 13.3153 9.3297 12.9889 9.65609C12.6625 9.98248 12.4993 10.3748 12.4993 10.8332C12.4993 11.0693 12.4195 11.2672 12.2598 11.4269C12.1 11.5866 11.9021 11.6665 11.666 11.6665Z"
            fill="#1B3154" />
    </g>
</svg>
    