<svg width="87" height="32" viewBox="0 0 87 32" fill="none" xmlns="http://www.w3.org/2000/svg">
<g clip-path="url(#clip0_435_44)">
<path fill-rule="evenodd" clip-rule="evenodd" d="M1 8H70.1V31H1V8Z" fill="#8492A9"/>
<path fill-rule="evenodd" clip-rule="evenodd" d="M5.40039 12.6001V26.5001H8.80039V17.9001L13.8004 26.5001H17.1004V12.6001H13.7004V20.7001L8.90039 12.6001H5.40039Z" fill="white"/>
<path fill-rule="evenodd" clip-rule="evenodd" d="M19 12.6V26.5H29.9V23.4H22.5V20.6H29V17.6H22.5V15.6H29.6V12.5L19 12.6Z" fill="#FEFEFE"/>
<path fill-rule="evenodd" clip-rule="evenodd" d="M30.5 12.6001L34.5 26.5001H38L39.8 17.5001L41.7 26.5001H44.8L48.8 12.6001H45.2L43.3 20.8001L41.6 12.6001H37.9L36.3 20.4001L34.5 12.6001H30.5Z" fill="#FEFEFE"/>
<path fill-rule="evenodd" clip-rule="evenodd" d="M56.8005 17.2001C56.8005 17.2001 57.3005 15.5001 54.5005 15.2001C52.6005 15.0001 52.2005 16.3001 52.5005 16.8001C53.1005 17.8001 57.4005 17.8001 59.5005 19.5001C61.3005 21.0001 60.8005 24.4001 59.0005 25.7001C56.8005 27.2001 53.2005 26.9001 51.6005 26.2001C50.7425 25.8271 50.0269 25.1887 49.5588 24.3786C49.0908 23.5686 48.8951 22.6297 49.0005 21.7001H52.3005C52.3005 21.7001 52.1005 23.8001 54.7005 23.8001C57.3005 23.8001 57.5005 22.4001 56.9005 21.8001C56.3005 21.2001 51.1005 20.9001 49.7005 18.8001C49.1173 17.8453 48.9371 16.6979 49.1997 15.6102C49.4622 14.5226 50.1459 13.5838 51.1005 13.0001C53.6005 11.5001 57.4005 12.2001 58.7005 13.6001C59.6059 14.5394 60.1083 15.7955 60.1005 17.1001L56.8005 17.2001Z" fill="white"/>
<path fill-rule="evenodd" clip-rule="evenodd" d="M63 0.899902H86V23.8999H63V0.899902Z" fill="#8492A9"/>
<path fill-rule="evenodd" clip-rule="evenodd" d="M71.5004 19.7H68.2004V8.8H65.9004V5.5H71.5004V19.7Z" fill="white"/>
<path d="M86.6996 24.3999H62.0996" stroke="white" stroke-miterlimit="10"/>
<path d="M70.6 31.5H0" stroke="white" stroke-miterlimit="10"/>
<path d="M62.5 7.8999H0" stroke="white" stroke-miterlimit="10"/>
<path d="M87 0.5H62" stroke="white" stroke-miterlimit="10"/>
<path d="M62.5 24.9V0.699951" stroke="white" stroke-miterlimit="10"/>
<path d="M70.4004 32V24.2" stroke="white" stroke-miterlimit="10"/>
<path d="M0.5 31.3V8" stroke="white" stroke-miterlimit="10"/>
<path d="M86.5 24.8999V0.899902" stroke="white" stroke-miterlimit="10"/>
<path fill-rule="evenodd" clip-rule="evenodd" d="M78.1396 20.0801C79.3147 20.126 80.467 19.7469 81.3853 19.0123C82.3036 18.2776 82.9264 17.2366 83.1396 16.0801C83.3105 15.2947 83.2144 14.4748 82.8666 13.7503C82.5189 13.0257 81.9392 12.4379 81.2196 12.0801C81.7467 11.7583 82.1661 11.2869 82.4244 10.7259C82.6826 10.1649 82.768 9.53976 82.6696 8.93007C82.4396 6.44007 80.4096 5.23007 77.9996 5.20007C76.9355 5.12709 75.882 5.45035 75.042 6.10761C74.2019 6.76487 73.6347 7.70966 73.4496 8.76007C73.3499 9.39353 73.4447 10.0423 73.7214 10.6208C73.9982 11.1992 74.4438 11.6802 74.9996 12.0001C74.3191 12.4063 73.7691 12.9988 73.4147 13.7076C73.0603 14.4165 72.9162 15.212 72.9996 16.0001C73.2203 17.1857 73.862 18.2516 74.8066 19.0013C75.7511 19.7511 76.9348 20.1342 78.1396 20.0801Z" fill="white"/>
<path fill-rule="evenodd" clip-rule="evenodd" d="M79.7699 15.11C79.7793 15.3227 79.7466 15.5353 79.6738 15.7355C79.6009 15.9356 79.4893 16.1194 79.3454 16.2764C79.2014 16.4334 79.0279 16.5604 78.8348 16.6503C78.6416 16.7401 78.4327 16.791 78.2199 16.8C77.7796 16.8 77.3574 16.6251 77.0461 16.3138C76.7348 16.0024 76.5599 15.5802 76.5599 15.14C76.5295 14.7266 76.6639 14.3179 76.9336 14.0032C77.2034 13.6884 77.5867 13.4932 77.9999 13.46H78.1499C78.3639 13.4613 78.5756 13.5047 78.7729 13.5879C78.9702 13.671 79.1491 13.7922 79.2996 13.9444C79.45 14.0967 79.5689 14.2772 79.6496 14.4754C79.7303 14.6737 79.7712 14.8859 79.7699 15.1V15.11Z" fill="#8492A9"/>
<path fill-rule="evenodd" clip-rule="evenodd" d="M79.7699 9.65C79.7793 9.86279 79.7466 10.0753 79.6738 10.2755C79.6009 10.4756 79.4893 10.6595 79.3454 10.8164C79.2014 10.9734 79.0279 11.1005 78.8348 11.1903C78.6416 11.2801 78.4327 11.331 78.2199 11.34C77.7796 11.34 77.3574 11.1651 77.0461 10.8538C76.7348 10.5425 76.5599 10.1203 76.5599 9.68C76.5295 9.26659 76.6639 8.85794 76.9336 8.54321C77.2034 8.22848 77.5867 8.03321 77.9999 8H78.1499C78.3639 8.00131 78.5756 8.04477 78.7729 8.1279C78.9702 8.21102 79.1491 8.33219 79.2996 8.48448C79.45 8.63677 79.5689 8.81719 79.6496 9.01546C79.7303 9.21373 79.7712 9.42594 79.7699 9.64V9.65Z" fill="#8492A9"/>
</g>
<defs>
<clipPath id="clip0_435_44">
<rect width="86.985" height="32" fill="white"/>
</clipPath>
</defs>
</svg>
