<svg width="20" height="20" viewBox="0 0 20 20" fill="none" xmlns="http://www.w3.org/2000/svg">
    <mask id="mask0_86_2225" style="mask-type:alpha" maskUnits="userSpaceOnUse" x="0" y="0"
        width="20" height="20">
        <rect width="20" height="20" fill="#D9D9D9" />
    </mask>
    <g mask="url(#mask0_86_2225)">
        <path
            d="M9.99935 14.5832C10.7355 14.5832 11.4334 14.4234 12.0931 14.104C12.7528 13.7846 13.2841 13.3193 13.6868 12.7082C13.8396 12.4721 13.8605 12.2394 13.7493 12.0103C13.6382 11.7811 13.4577 11.6665 13.2077 11.6665C13.0966 11.6665 12.9959 11.6908 12.9056 11.7394C12.8153 11.788 12.7424 11.8609 12.6868 11.9582C12.3674 12.3887 11.9716 12.7255 11.4993 12.9686C11.0271 13.2116 10.5271 13.3332 9.99935 13.3332C9.47157 13.3332 8.97157 13.2116 8.49935 12.9686C8.02713 12.7255 7.63129 12.3887 7.31185 11.9582C7.2424 11.8609 7.16254 11.788 7.07227 11.7394C6.98199 11.6908 6.88129 11.6665 6.77018 11.6665C6.52018 11.6665 6.33963 11.7776 6.22852 11.9998C6.1174 12.2221 6.13824 12.4443 6.29102 12.6665C6.69379 13.2915 7.22504 13.7672 7.88477 14.0936C8.54449 14.42 9.24935 14.5832 9.99935 14.5832ZM12.916 9.1665C13.2632 9.1665 13.5584 9.04498 13.8014 8.80192C14.0445 8.55887 14.166 8.26373 14.166 7.9165C14.166 7.56928 14.0445 7.27414 13.8014 7.03109C13.5584 6.78803 13.2632 6.6665 12.916 6.6665C12.5688 6.6665 12.2737 6.78803 12.0306 7.03109C11.7875 7.27414 11.666 7.56928 11.666 7.9165C11.666 8.26373 11.7875 8.55887 12.0306 8.80192C12.2737 9.04498 12.5688 9.1665 12.916 9.1665ZM7.08268 9.1665C7.4299 9.1665 7.72504 9.04498 7.9681 8.80192C8.21115 8.55887 8.33268 8.26373 8.33268 7.9165C8.33268 7.56928 8.21115 7.27414 7.9681 7.03109C7.72504 6.78803 7.4299 6.6665 7.08268 6.6665C6.73546 6.6665 6.44032 6.78803 6.19727 7.03109C5.95421 7.27414 5.83268 7.56928 5.83268 7.9165C5.83268 8.26373 5.95421 8.55887 6.19727 8.80192C6.44032 9.04498 6.73546 9.1665 7.08268 9.1665ZM9.99935 18.3332C8.84657 18.3332 7.76324 18.1144 6.74935 17.6769C5.73546 17.2394 4.85352 16.6457 4.10352 15.8957C3.35352 15.1457 2.75977 14.2637 2.32227 13.2498C1.88477 12.2359 1.66602 11.1526 1.66602 9.99984C1.66602 8.84706 1.88477 7.76373 2.32227 6.74984C2.75977 5.73595 3.35352 4.854 4.10352 4.104C4.85352 3.354 5.73546 2.76025 6.74935 2.32275C7.76324 1.88525 8.84657 1.6665 9.99935 1.6665C11.1521 1.6665 12.2355 1.88525 13.2493 2.32275C14.2632 2.76025 15.1452 3.354 15.8952 4.104C16.6452 4.854 17.2389 5.73595 17.6764 6.74984C18.1139 7.76373 18.3327 8.84706 18.3327 9.99984C18.3327 11.1526 18.1139 12.2359 17.6764 13.2498C17.2389 14.2637 16.6452 15.1457 15.8952 15.8957C15.1452 16.6457 14.2632 17.2394 13.2493 17.6769C12.2355 18.1144 11.1521 18.3332 9.99935 18.3332ZM9.99935 16.6665C11.8605 16.6665 13.4368 16.0207 14.7285 14.729C16.0202 13.4373 16.666 11.8609 16.666 9.99984C16.666 8.13873 16.0202 6.56234 14.7285 5.27067C13.4368 3.979 11.8605 3.33317 9.99935 3.33317C8.13824 3.33317 6.56185 3.979 5.27018 5.27067C3.97852 6.56234 3.33268 8.13873 3.33268 9.99984C3.33268 11.8609 3.97852 13.4373 5.27018 14.729C6.56185 16.0207 8.13824 16.6665 9.99935 16.6665Z"
            fill="#3969B5" />
    </g>
</svg>
    