<svg width="56" height="18" viewBox="0 0 56 18" fill="none" xmlns="http://www.w3.org/2000/svg">
    <path
        d="M32.46 9.40856C31.3568 8.49809 29.9322 9.1235 29.6163 10.4259C29.5386 10.4756 29.4776 10.4437 29.4101 10.3921C29.3136 10.3181 29.1993 10.2646 29.1055 10.1868C28.7128 9.86331 28.2489 9.88019 27.8008 9.9552C27.4644 10.0115 27.186 10.2346 26.9432 10.4812C26.7071 10.7212 26.618 11.0335 26.5224 11.3504C26.3556 11.2491 26.1981 11.146 26.0341 11.056C25.961 11.0156 25.8766 10.9931 25.7942 10.9735C25.6508 10.9397 25.5064 10.9135 25.3621 10.8862C25.3161 10.8778 25.2684 10.8694 25.2224 10.875C24.661 10.9472 24.1792 11.1769 23.8756 11.6682C23.6938 11.9627 23.5775 12.3012 23.6 12.6584C23.615 12.8947 23.6722 13.1272 23.7931 13.3391C23.8418 13.4254 23.8653 13.5266 23.9018 13.6251C23.54 13.9711 23.1792 14.3105 22.8258 14.6556C22.479 14.994 22.1407 15.3419 21.7939 15.6813C21.404 16.0629 21.0094 16.4399 20.6157 16.8168C20.4555 16.9696 20.2708 17.0484 20.0421 17.069C19.6175 17.1084 19.3176 16.933 19.0692 16.6096C18.9502 16.4539 18.9483 16.2617 18.8696 16.0939C18.8471 16.0461 18.9146 15.9635 18.9202 15.896C18.9409 15.6223 19.0918 15.4263 19.2782 15.2425C19.7516 14.7784 20.2202 14.3096 20.6907 13.8426C21.1388 13.3982 21.5886 12.9556 22.0357 12.5102C22.2101 12.3368 22.3825 12.1614 22.5549 11.9861C22.6384 11.9017 22.7031 11.8108 22.7115 11.6851C22.7312 11.3822 22.4884 11.2219 22.2081 11.3326C22.0291 11.4029 21.927 11.5492 21.8014 11.6692C21.194 12.2543 20.5933 12.8469 19.9934 13.4404C19.6813 13.7498 19.3776 14.0677 19.0645 14.3761C18.8893 14.5496 18.699 14.7081 18.5219 14.8787C18.1854 15.2013 17.8602 15.535 17.5171 15.851C17.3034 16.047 17.0569 16.1708 16.7448 16.1558C16.2752 16.1323 15.8628 15.7338 15.8385 15.2622C15.8197 14.8918 15.9285 14.5927 16.2059 14.3302C16.7008 13.8614 17.1732 13.3682 17.654 12.8843C18.0589 12.4765 18.4619 12.0667 18.8658 11.6579C19.402 11.116 19.9399 10.5768 20.4714 10.0311C20.5717 9.92798 20.6438 9.79861 20.7217 9.69172C20.6486 9.53326 20.6017 9.39915 20.4217 9.40199C20.2802 9.40386 20.1574 9.41416 20.044 9.53233C19.7244 9.86518 19.3889 10.183 19.0552 10.5018C18.8153 10.7316 18.565 10.95 18.3241 11.1788C17.9295 11.5538 17.5406 11.9345 17.1469 12.3105C16.7851 12.6556 16.4205 12.9978 16.0587 13.3429C15.6398 13.7432 15.2227 14.1464 14.8056 14.5496C14.6678 14.6827 14.5376 14.8234 14.3932 14.949C14.1917 15.1243 13.9442 15.1459 13.6903 15.1291C13.2685 15.1 12.9976 14.8797 12.8795 14.4652C12.8458 14.3471 12.7802 14.2233 12.7952 14.1108C12.8167 13.9561 12.8823 13.7976 12.9648 13.6616C13.1466 13.3644 13.4147 13.1394 13.6574 12.8947C14.0248 12.5234 14.3848 12.1446 14.7503 11.7714C15.1374 11.3748 15.5264 10.9791 15.9163 10.5853C16.1722 10.3265 16.459 10.0921 16.6811 9.80705C16.9735 9.43197 17.3428 9.13944 17.6634 8.79438C18.3419 8.06398 19.0439 7.35606 19.7431 6.64626C20.2774 6.10336 20.8351 5.58297 21.3581 5.03074C21.5765 4.80008 21.7817 4.56098 22.0489 4.38376C22.2091 4.27687 22.3928 4.21967 22.5643 4.14091C22.9364 3.97026 23.3132 4.04246 23.6872 4.03308C24.2252 4.02089 24.7669 4.00496 25.3012 4.05371C25.7079 4.09028 26.1447 4.10528 26.4765 4.41283C26.6237 4.5497 26.7586 4.69785 26.9011 4.83943C27.2966 5.22952 27.6912 5.62143 28.0914 6.00681C28.3107 6.21869 28.5825 6.33402 28.8844 6.33686C29.7973 6.34623 30.7101 6.33966 31.623 6.34153C32.3101 6.34344 32.9962 6.34997 33.6832 6.3509C33.7975 6.3509 33.9109 6.33402 34.0168 6.32558C34.0562 6.20652 34.0328 6.14462 33.9597 6.07432C33.6654 5.79023 33.3804 5.49673 33.0936 5.20514C32.6634 4.7682 32.2332 4.32937 31.8039 3.8915C31.2819 3.35893 30.7626 2.82166 30.2368 2.29377C29.8947 1.94966 29.5376 1.62149 29.1936 1.27925C28.9856 1.07203 28.7934 0.847938 28.5853 0.639783C28.4879 0.54227 28.3707 0.463508 28.2629 0.37537C28.2751 0.352867 28.2873 0.330364 28.2985 0.307861C28.3529 0.294734 28.4073 0.270355 28.4616 0.26848C28.6566 0.261917 28.8515 0.263792 29.0465 0.260041C29.2864 0.255354 29.5311 0.290046 29.7635 0.195345C29.7841 0.186906 29.8094 0.187844 29.8329 0.187844C30.3006 0.185968 30.7692 0.164403 31.235 0.190657C31.5574 0.208472 31.8845 0.290984 32.1676 0.448506C32.3719 0.56196 32.5378 0.747613 32.7112 0.910759C33.0383 1.21737 33.3617 1.52866 33.6822 1.84183C33.9475 2.10062 34.2118 2.36128 34.4676 2.63038C34.6795 2.85354 34.8791 3.08889 35.0825 3.31954C35.2747 3.53802 35.509 3.71241 35.762 3.83806C35.9617 3.93651 36.1725 4.03402 36.4209 4.03121C37.631 4.01714 38.8399 4.02089 40.05 4.02089C44.1871 4.02089 48.3233 4.02089 52.4603 4.02089C52.5439 4.02089 52.6274 4.03027 52.7351 4.03683C52.7236 4.13529 52.7296 4.21592 52.7041 4.28437C52.6143 4.52252 52.5091 4.75412 52.4162 4.99135C52.3463 5.17139 52.2869 5.35515 52.2203 5.53612C52.105 5.84552 51.9842 6.1531 51.8718 6.46436C51.762 6.76817 51.6628 7.0757 51.5542 7.3795C51.466 7.62611 51.3825 7.87551 51.2765 8.11461C51.1353 8.43152 51.014 8.75406 50.9178 9.08788C50.8538 9.30917 50.7499 9.52199 50.7058 9.74607C50.6452 10.0527 50.4904 10.3209 50.378 10.6031C50.1902 11.071 49.9824 11.5379 49.5961 11.8895C49.5622 11.9205 49.5334 11.9561 49.5024 11.9899C49.2455 12.2693 48.9355 12.4305 48.5471 12.4165C48.3657 12.4099 48.3432 12.3855 48.3496 12.2102C48.3627 11.867 48.3852 11.5239 48.386 11.1807C48.386 10.8309 48.3703 10.4859 48.2669 10.1418C48.1482 9.74141 47.9764 9.3729 47.7899 9.00066C47.566 8.55435 47.2293 8.21586 46.8838 7.88115C46.7307 7.733 46.5424 7.61581 46.3571 7.507C46.1451 7.3823 45.923 7.27261 45.697 7.17509C45.4854 7.08414 45.2763 6.98475 45.0372 6.96414C44.8536 6.9482 44.6734 6.87129 44.4898 6.86476C44.1243 6.85161 43.758 6.85539 43.3925 6.87879C43.1694 6.89287 42.9443 6.93692 42.7306 6.99976C42.5105 7.06446 42.293 7.15164 42.0903 7.26044C41.7587 7.4395 41.4212 7.61203 41.1371 7.8708C40.7399 8.23274 40.393 8.63873 40.1335 9.10476C39.9788 9.38321 39.8749 9.69172 39.799 10.0143C39.6434 10.6734 39.7239 11.3345 39.704 11.9936C39.7006 12.1164 39.704 12.2402 39.704 12.3612C39.5522 12.424 39.4475 12.4015 39.3461 12.2993C39.0752 12.0255 38.7979 11.7583 38.5231 11.4882C37.9592 10.9341 37.394 10.3818 36.8313 9.82579C36.3572 9.35603 35.8904 8.87876 35.4124 8.41278C35.2803 8.2843 35.1069 8.2112 34.9438 8.12212C34.626 7.94679 34.2943 7.96926 33.969 8.00021C33.5004 8.04427 33.0983 8.23838 32.8452 8.66875C32.7356 8.85536 32.6034 9.02784 32.5791 9.25477C32.5734 9.30447 32.5069 9.34666 32.46 9.40386V9.40856Z"
        fill="#66288F" />
    <path
        d="M43.9755 7.51629C44.1391 7.51629 44.3032 7.50785 44.4665 7.51909C44.5648 7.52566 44.6615 7.56034 44.7569 7.58939C44.9481 7.64752 45.1364 7.71973 45.3298 7.76942C45.627 7.84443 45.8865 7.98792 46.1265 8.17261C46.2668 8.28137 46.4076 8.39204 46.5369 8.5139C46.9041 8.86176 47.2128 9.25745 47.4074 9.72627C47.4986 9.9457 47.5164 10.1942 47.6016 10.4164C47.7356 10.7652 47.7377 11.1262 47.6851 11.4768C47.6381 11.7853 47.6186 12.1079 47.4752 12.3986C47.4244 12.5017 47.4019 12.6179 47.3578 12.7248C47.0563 13.4693 46.5068 14.001 45.847 14.421C45.6232 14.5635 45.3429 14.6142 45.1008 14.7304C44.7637 14.8926 44.3999 14.8579 44.0484 14.8852C43.7486 14.9086 43.4366 14.888 43.1423 14.8289C42.8976 14.7801 42.6708 14.6461 42.4355 14.5485C42.3435 14.5101 42.2459 14.4801 42.1616 14.4276C41.8067 14.2091 41.4691 13.9597 41.1974 13.6437C40.9714 13.3812 40.767 13.0961 40.6321 12.7717C40.5138 12.4885 40.4278 12.196 40.3442 11.8997C40.259 11.5969 40.2527 11.3052 40.2514 11.0043C40.2514 10.9133 40.2823 10.8214 40.3031 10.7314C40.3209 10.6555 40.3676 10.5795 40.3621 10.5073C40.3434 10.2757 40.4587 10.0844 40.5363 9.88659C40.6377 9.63066 40.7577 9.37842 40.8993 9.14211C41.0015 8.97243 41.1465 8.82707 41.2834 8.68177C41.6239 8.31983 42.0089 8.01416 42.4634 7.81068C42.6369 7.73287 42.8311 7.69819 43.0147 7.64472C43.0371 7.63815 43.0643 7.64286 43.0829 7.63162C43.3623 7.46376 43.6744 7.53126 43.9733 7.51722L43.9755 7.51629ZM44.0183 13.2302C44.2659 13.2283 44.5394 13.234 44.7815 13.0755C44.8451 13.0333 44.907 12.9855 44.9774 12.9564C45.3196 12.8148 45.577 12.5851 45.7393 12.2513C45.7767 12.1744 45.8097 12.0957 45.8432 12.0178C45.9437 11.7844 46.0591 11.5566 46.0476 11.2893C46.0391 11.0643 46.0531 10.843 45.9344 10.632C45.8144 10.4183 45.7542 10.166 45.6147 9.96817C45.3111 9.53967 44.8544 9.30807 44.3626 9.19181C43.8534 9.07181 43.3717 9.22463 42.921 9.48251C42.6716 9.62502 42.4974 9.83037 42.3295 10.0554C42.0763 10.3976 41.9873 10.7924 41.9368 11.1984C41.9207 11.3231 41.9894 11.4562 41.9966 11.5865C42.0157 11.895 42.1628 12.1651 42.3341 12.3863C42.7454 12.9161 43.2809 13.264 44.0174 13.2302H44.0183Z"
        fill="#66288F" />
    <path
        d="M23.2167 17.8135C22.6862 17.8641 22.1369 17.3259 22.1613 16.7952C22.1744 16.4998 22.2475 16.2514 22.4593 16.0442C22.9514 15.5641 23.4435 15.083 23.9337 14.6002C24.0208 14.5139 24.0977 14.4164 24.183 14.3283C24.3236 14.1839 24.3583 14.1867 24.497 14.3264C24.8869 14.7192 25.2787 15.1103 25.6695 15.5012C25.7942 15.6259 25.8017 15.6531 25.6817 15.7769C25.4202 16.0469 25.1521 16.3104 24.8869 16.5758C24.5776 16.8862 24.273 17.2003 23.958 17.504C23.7472 17.7075 23.5082 17.8613 23.2157 17.8135H23.2167Z"
        fill="#66288F" />
    <path
        d="M0.0226213 12.4087C-0.0589159 12.1611 0.102293 12.0045 0.153852 11.8236C0.199773 11.6642 0.298185 11.5207 0.36378 11.3651C0.49128 11.0604 0.615006 10.7538 0.734025 10.4462C0.797754 10.2811 0.840876 10.1077 0.905538 9.94266C0.996445 9.70734 1.1005 9.47761 1.1942 9.24415C1.27388 9.04444 1.34604 8.84189 1.42385 8.64125C1.4679 8.52685 1.51289 8.41245 1.56352 8.30089C1.75004 7.88927 1.93465 7.47764 2.07996 7.04727C2.16994 6.78005 2.30583 6.52968 2.41548 6.26904C2.51389 6.0346 2.60107 5.79644 2.69668 5.56111C2.93099 4.98632 3.33588 4.5691 3.8795 4.27749C4.35469 4.02245 4.86549 3.9812 5.39038 3.99245C6.18612 4.00933 6.98092 4.0187 7.77666 4.02714C8.35404 4.0337 8.93137 4.03089 9.50968 4.03652C9.76557 4.03933 10.0252 4.00464 10.2726 4.10309C10.2998 4.11434 10.3345 4.10871 10.3654 4.10871C11.6841 4.12747 13.002 4.14622 14.3207 4.1631C14.914 4.1706 15.5073 4.1706 16.0996 4.17904C16.1915 4.17997 16.2824 4.20717 16.3742 4.22029C16.4436 4.23061 16.5139 4.25217 16.5814 4.24561C16.9263 4.21373 17.2675 4.17904 17.6002 4.05058C17.9479 3.91743 18.2338 3.70366 18.4972 3.45987C18.6921 3.27985 18.8458 3.05481 19.023 2.85416C19.4841 2.33096 19.9471 1.8087 20.4111 1.28831C20.6145 1.06046 20.8047 0.816678 21.0325 0.615087C21.2752 0.400369 21.5564 0.240971 21.9079 0.252223C22.1647 0.260661 22.4215 0.225969 22.6783 0.225969C23.9896 0.223156 25.3008 0.223156 26.612 0.228782C26.8136 0.228782 27.0198 0.244721 27.2147 0.292541C27.3488 0.325358 27.4847 0.405057 27.5887 0.498821C27.8886 0.767922 28.1773 1.05015 28.4613 1.33707C28.9599 1.83964 29.4538 2.34878 29.9459 2.85791C30.5861 3.51988 31.2234 4.1856 31.8626 4.84852C32.0501 5.04259 32.2451 5.23106 32.4325 5.42611C32.4897 5.48517 32.5319 5.55738 32.6059 5.6577C32.5009 5.67364 32.4287 5.69332 32.3566 5.69332C31.2871 5.70082 30.2177 5.70362 29.1492 5.71206C28.8277 5.7149 28.5719 5.56955 28.3394 5.36984C28.0058 5.08198 27.7349 4.73599 27.4678 4.38813C27.21 4.05246 26.8726 3.81805 26.5043 3.61646C26.3552 3.53488 26.1931 3.53019 26.0412 3.4805C25.4348 3.27985 24.8125 3.36236 24.207 3.40736C23.639 3.44956 23.071 3.45049 22.5049 3.49269C22.1497 3.51894 21.8863 3.72429 21.6492 3.95401C21.1159 4.46971 20.6004 5.00511 20.0736 5.52643C19.546 6.04868 19.0127 6.56436 18.4822 7.08382C17.9807 7.57422 17.4811 8.06553 16.9797 8.55594C16.4755 9.0491 15.9675 9.5376 15.466 10.0336C14.9065 10.5868 14.3535 11.1466 13.7949 11.7017C13.6018 11.8939 13.4012 12.0795 13.1978 12.2737C13.0891 12.224 13.1294 12.1292 13.1303 12.0524C13.135 11.7167 13.151 11.381 13.1463 11.0453C13.1435 10.8128 13.1491 10.5756 13.0422 10.3562C13.0291 10.3299 13.0301 10.2952 13.0282 10.2643C13.0113 9.99049 12.9101 9.74482 12.7817 9.50763C12.6439 9.25165 12.5239 8.98253 12.3608 8.74437C12.2099 8.52498 12.0206 8.32994 11.8322 8.13867C11.687 7.99145 11.5267 7.85551 11.357 7.73925C11.1059 7.56672 10.8472 7.40076 10.5772 7.25919C10.2773 7.10162 9.94832 7.02759 9.61653 6.94788C9.19663 6.84662 8.78237 6.83161 8.36434 6.85973C7.89288 6.89161 7.44017 7.00601 7.00344 7.20758C6.42136 7.47577 5.94151 7.86582 5.52441 8.33838C5.36884 8.51468 5.26292 8.73406 5.13262 8.93284C5.10358 8.97689 5.06045 9.01442 5.03891 9.06131C4.94237 9.27039 4.84116 9.47854 4.75958 9.69419C4.67151 9.92672 4.65273 10.179 4.5937 10.4171C4.48215 10.8653 4.49343 11.3135 4.50373 11.7645C4.50746 11.9183 4.53841 12.072 4.56653 12.224C4.59277 12.3636 4.56839 12.4059 4.42028 12.4218C4.36593 12.4274 4.31157 12.4246 4.25628 12.4246C2.93756 12.4246 1.61787 12.4246 0.299118 12.4246C0.207278 12.4246 0.115437 12.4143 0.0188898 12.4087H0.0226213Z"
        fill="#AD3DAA" />
    <path
        d="M8.79004 7.50956C8.99246 7.50956 9.19586 7.50299 9.39832 7.51236C9.48079 7.51609 9.56233 7.55077 9.64293 7.57515C9.68699 7.5883 9.72634 7.61832 9.77133 7.62582C10.3094 7.71957 10.7695 7.97368 11.1801 8.32154C11.6047 8.68063 11.9552 9.10447 12.1989 9.60515C12.2888 9.78989 12.3029 10.0093 12.3817 10.1996C12.5869 10.6975 12.4997 11.2132 12.4904 11.7242C12.4885 11.8292 12.4454 11.9342 12.4182 12.0383C12.4088 12.0758 12.3873 12.1105 12.3807 12.148C12.286 12.7022 12.0311 13.1794 11.6552 13.5863C11.4219 13.8395 11.1726 14.0824 10.9026 14.2952C10.7255 14.4349 10.5005 14.5184 10.2925 14.615C10.1256 14.6928 9.95598 14.7818 9.7779 14.8137C9.4208 14.8784 9.0581 14.9291 8.69629 14.9422C8.45914 14.9515 8.21733 14.8943 7.98022 14.8493C7.81431 14.8175 7.6475 14.7687 7.49282 14.7012C7.25385 14.5962 7.01297 14.4865 6.79363 14.3458C6.34655 14.0589 5.95761 13.7035 5.66704 13.2516C5.48709 12.9722 5.35026 12.6759 5.249 12.3562C5.11031 11.9192 4.99031 11.4832 5.03064 11.02C5.03814 10.9356 5.05875 10.8522 5.07563 10.7678C5.10001 10.6459 5.12155 10.524 5.15246 10.404C5.19465 10.2399 5.22746 10.0702 5.29492 9.91645C5.40555 9.66421 5.48615 9.39793 5.6558 9.17011C5.89575 8.84752 6.16003 8.55029 6.46464 8.28872C6.67927 8.10496 6.90799 7.94273 7.17511 7.84241C7.3691 7.76927 7.56596 7.70363 7.76088 7.63519C7.78246 7.62769 7.81151 7.63519 7.82932 7.62392C8.13019 7.43828 8.46855 7.53017 8.78813 7.50956H8.79004ZM8.81065 13.2104C9.90629 13.2526 10.8558 12.2089 10.8202 11.1569C10.7845 10.1012 9.87631 9.17104 8.75251 9.18792C7.76839 9.20195 6.77862 10.0993 6.7927 11.2535C6.80487 12.3215 7.8012 13.2554 8.80971 13.2104H8.81065Z"
        fill="#AD3DAA" />
    <path
        d="M25.3363 11.6267C25.669 11.577 25.908 11.7814 26.1386 11.9915C26.3101 12.148 26.4629 12.3252 26.6279 12.4893C27.0402 12.9 27.4555 13.3079 27.8679 13.7176C28.6093 14.4546 29.3497 15.1925 30.0901 15.9305C30.3226 16.1621 30.4782 16.4509 30.4997 16.765C30.5166 17.0172 30.42 17.2731 30.2213 17.4757C30.0161 17.6848 29.7715 17.8085 29.4922 17.8048C29.2194 17.801 28.9739 17.6716 28.7761 17.4776C28.3552 17.0641 27.9382 16.6468 27.5192 16.2305C27.1002 15.8142 26.6785 15.3988 26.2623 14.9797C25.7112 14.4255 25.1676 13.8649 24.6127 13.3145C24.4412 13.1447 24.3587 12.9356 24.2875 12.7172C24.2753 12.6815 24.2734 12.6384 24.28 12.6009C24.3259 12.3506 24.3971 12.1077 24.5771 11.9174C24.7777 11.7045 25.0251 11.5967 25.3382 11.6258L25.3363 11.6267Z"
        fill="#AD3DAA" />
    <path
        d="M34.2688 8.66669C34.5331 8.62259 34.7533 8.78481 34.9558 8.98452C35.5163 9.53866 36.0749 10.0938 36.6335 10.6488C37.3926 11.4036 38.1491 12.1622 38.9131 12.9123C39.1565 13.1514 39.332 13.4233 39.4143 13.7534C39.4274 13.8049 39.4296 13.8631 39.4219 13.9165C39.3359 14.4931 38.9271 14.8672 38.3441 14.8523C38.138 14.8466 37.9493 14.7613 37.7976 14.63C37.5737 14.4378 37.3663 14.225 37.1564 14.0168C36.6466 13.5105 36.1377 13.0042 35.6306 12.4941C35.1901 12.0516 34.7533 11.6043 34.3147 11.1599C34.0616 10.9029 33.8105 10.6432 33.5508 10.3938C33.3371 10.1894 33.2528 9.94842 33.2378 9.65399C33.2171 9.26208 33.4243 9.02485 33.7008 8.80262C33.863 8.67228 34.0401 8.66948 34.2706 8.66575L34.2688 8.66669Z"
        fill="#AD3DAA" />
    <path
        d="M33.3933 15.8264C33.4374 16.5324 32.606 16.9787 32.0465 16.7303C31.8094 16.6252 31.6341 16.4714 31.4607 16.2924C30.8805 15.697 30.2938 15.1072 29.708 14.5165C29.2984 14.1039 28.886 13.6932 28.4755 13.2816C28.1755 12.9807 27.8681 12.6862 27.5766 12.3778C27.3451 12.1321 27.1558 11.8564 27.2158 11.4898C27.272 11.1457 27.4426 10.8785 27.766 10.7266C27.8559 10.6844 27.9506 10.6422 28.0472 10.6244C28.3668 10.5653 28.6489 10.6562 28.8822 10.8785C29.1728 11.156 29.4558 11.4411 29.7408 11.7242C30.1457 12.1255 30.5515 12.5268 30.9555 12.93C31.6491 13.621 32.3483 14.3074 33.0297 15.0097C33.249 15.2357 33.4468 15.4954 33.3943 15.8264H33.3933Z"
        fill="#AD3DAA" />
    <path
        d="M36.4918 14.8861C36.5434 15.2545 36.3615 15.5161 36.0888 15.6952C35.8385 15.8593 35.5639 15.9531 35.2378 15.819C35.0156 15.7281 34.845 15.5977 34.6819 15.4355C33.665 14.421 32.6443 13.4102 31.6264 12.3957C31.2825 12.0525 30.9235 11.7216 30.6057 11.3549C30.3611 11.0736 30.2571 10.7549 30.3958 10.347C30.5523 9.88377 31.1081 9.61562 31.544 9.71594C31.7951 9.77407 32.0098 9.91943 32.1916 10.1023C32.5984 10.512 32.9967 10.9302 33.4035 11.339C33.8215 11.76 34.2461 12.1744 34.6679 12.5917C35.1815 13.0999 35.6979 13.6053 36.2078 14.1181C36.4178 14.3291 36.5462 14.5804 36.4927 14.8842L36.4918 14.8861Z"
        fill="#AD3DAA" />
    <path
        d="M54.9407 2.56089C55.0391 2.30679 55.1387 2.05269 55.2371 1.79859C55.2837 1.67764 55.3185 1.55012 55.3774 1.43573C55.4059 1.38228 55.4758 1.32884 55.5339 1.31759C55.6382 1.29883 55.7476 1.31196 55.8481 1.31196C55.9202 1.60638 55.9185 2.9622 55.8519 3.20036C55.5865 3.25755 55.5127 3.20036 55.508 2.93126C55.5051 2.78311 55.5089 2.63403 55.5013 2.48588C55.4983 2.43244 55.4724 2.37993 55.4563 2.32742C55.4402 2.32742 55.4254 2.32836 55.4092 2.3293C55.2977 2.61809 55.1862 2.90688 55.0756 3.19192C54.8076 3.26505 54.7826 3.25099 54.699 3.01002C54.6108 2.75592 54.518 2.50463 54.4251 2.25241C54.4217 2.24209 54.4001 2.23741 54.3568 2.21397C54.2754 2.54026 54.3539 2.8675 54.2979 3.21161C54.1949 3.2163 54.0927 3.22099 53.9977 3.22568C53.9303 3.02783 53.9133 1.67577 53.9668 1.35603C54.1105 1.27633 54.2623 1.31478 54.4188 1.32509C54.5752 1.74327 54.7279 2.15114 54.8809 2.55902C54.9004 2.55902 54.9204 2.56089 54.9399 2.56183L54.9407 2.56089Z"
        fill="#AD3DAA" />
    <path
        d="M53.6261 1.32598C53.6859 1.57164 53.6354 1.64853 53.417 1.66541C53.3412 1.67103 53.2653 1.67385 53.1576 1.68041V3.2125C53.0223 3.21813 52.9193 3.22282 52.7993 3.22844C52.7365 2.71087 52.8014 2.21298 52.7573 1.7001C52.6746 1.68791 52.6008 1.67103 52.5258 1.66635C52.2548 1.64947 52.2222 1.6054 52.2896 1.32598H53.6269H53.6261Z"
        fill="#AD3DAA" />
</svg>
    