<svg width="20" height="20" viewBox="0 0 20 20" fill="none" xmlns="http://www.w3.org/2000/svg">
    <mask id="mask0_86_2207" style="mask-type:alpha" maskUnits="userSpaceOnUse" x="0" y="0"
        width="20" height="20">
        <rect width="20" height="20" fill="#D9D9D9" />
    </mask>
    <g mask="url(#mask0_86_2207)">
        <path
            d="M9.47982 18.1876C7.61871 17.5765 6.12912 16.4202 5.01107 14.7188C3.89301 13.0174 3.33398 11.1945 3.33398 9.25008V5.31258C3.33398 4.96536 3.43468 4.65286 3.63607 4.37508C3.83746 4.0973 4.09787 3.89591 4.41732 3.77091L9.41732 1.89591C9.61176 1.82647 9.80621 1.79175 10.0007 1.79175C10.1951 1.79175 10.3895 1.82647 10.584 1.89591L15.584 3.77091C15.9034 3.89591 16.1638 4.0973 16.3652 4.37508C16.5666 4.65286 16.6673 4.96536 16.6673 5.31258V9.18758C16.6673 9.42369 16.5875 9.62161 16.4277 9.78133C16.268 9.94105 16.0701 10.0209 15.834 10.0209C15.5979 10.0209 15.4 9.94105 15.2402 9.78133C15.0805 9.62161 15.0007 9.42369 15.0007 9.18758V5.31258L10.0007 3.43758L5.00065 5.31258V9.25008C5.00065 10.9306 5.47287 12.4584 6.41732 13.8334C7.36176 15.2084 8.55621 16.1251 10.0007 16.5834C10.2229 16.6529 10.3861 16.7917 10.4902 17.0001C10.5944 17.2084 10.6118 17.4237 10.5423 17.6459C10.4729 17.8681 10.334 18.0313 10.1257 18.1355C9.91732 18.2397 9.70204 18.257 9.47982 18.1876ZM14.1673 15.8334H12.5007C12.2645 15.8334 12.0666 15.7536 11.9069 15.5938C11.7472 15.4341 11.6673 15.2362 11.6673 15.0001C11.6673 14.764 11.7472 14.5661 11.9069 14.4063C12.0666 14.2466 12.2645 14.1667 12.5007 14.1667H14.1673V12.5001C14.1673 12.264 14.2472 12.0661 14.4069 11.9063C14.5666 11.7466 14.7645 11.6667 15.0007 11.6667C15.2368 11.6667 15.4347 11.7466 15.5944 11.9063C15.7541 12.0661 15.834 12.264 15.834 12.5001V14.1667H17.5007C17.7368 14.1667 17.9347 14.2466 18.0944 14.4063C18.2541 14.5661 18.334 14.764 18.334 15.0001C18.334 15.2362 18.2541 15.4341 18.0944 15.5938C17.9347 15.7536 17.7368 15.8334 17.5007 15.8334H15.834V17.5001C15.834 17.7362 15.7541 17.9341 15.5944 18.0938C15.4347 18.2536 15.2368 18.3334 15.0007 18.3334C14.7645 18.3334 14.5666 18.2536 14.4069 18.0938C14.2472 17.9341 14.1673 17.7362 14.1673 17.5001V15.8334ZM9.25065 12.5001H10.7507C10.8757 12.5001 10.9833 12.448 11.0736 12.3438C11.1638 12.2397 11.1951 12.1251 11.1673 12.0001L10.7715 9.81258C11.0493 9.67369 11.268 9.4723 11.4277 9.20842C11.5875 8.94453 11.6673 8.65286 11.6673 8.33342C11.6673 7.87508 11.5041 7.48272 11.1777 7.15633C10.8513 6.82994 10.459 6.66675 10.0007 6.66675C9.54232 6.66675 9.14996 6.82994 8.82357 7.15633C8.49718 7.48272 8.33398 7.87508 8.33398 8.33342C8.33398 8.65286 8.41385 8.94453 8.57357 9.20842C8.73329 9.4723 8.95204 9.67369 9.22982 9.81258L8.83398 12.0001C8.80621 12.1251 8.83746 12.2397 8.92773 12.3438C9.01801 12.448 9.12565 12.5001 9.25065 12.5001Z"
            fill="#3969B5" />
    </g>
</svg>
    