<svg width="384" height="206" viewBox="0 0 384 206" fill="none" xmlns="http://www.w3.org/2000/svg">
<g clip-path="url(#clip0_752_128)">
<rect width="384" height="206" rx="8" fill="#F8F8FF"/>
<circle cx="192" cy="81" r="24.5" stroke="#4C8CF1"/>
<circle opacity="0.8" cx="192" cy="81" r="49.5" stroke="#4C8CF1"/>
<circle opacity="0.5" cx="192" cy="81" r="74.5" stroke="#4C8CF1"/>
<circle opacity="0.2" cx="192" cy="81" r="99.3333" stroke="#4C8CF1" stroke-width="1.33333"/>
<circle opacity="0.05" cx="192" cy="81" r="124.167" stroke="#4C8CF1" stroke-width="1.66667"/>
<path d="M224.116 -19H160.172C152.345 -19 146 -12.4789 146 -4.43482V119.621C146 127.665 152.345 134.186 160.172 134.186H224.116C231.943 134.186 238.288 127.665 238.288 119.621V-4.43482C238.288 -12.4789 231.943 -19 224.116 -19Z" fill="#3969B5"/>
<path d="M234.773 113.952V-0.674674C234.774 -2.44286 234.437 -4.19408 233.78 -5.82823C233.123 -7.46238 232.159 -8.94741 230.943 -10.1984C229.727 -11.4494 228.284 -12.4418 226.694 -13.1189C225.105 -13.796 223.402 -14.1445 221.681 -14.1445H162.633C160.912 -14.1465 159.206 -13.7994 157.616 -13.1232C156.025 -12.4469 154.579 -11.4548 153.362 -10.2036C152.144 -8.95246 151.179 -7.46678 150.521 -5.83167C149.863 -4.19655 149.525 -2.44411 149.527 -0.674674V113.967L234.773 113.952Z" fill="#ECE8FF"/>
<path d="M186.139 122.818C186.139 124.04 186.491 125.234 187.152 126.249C187.812 127.265 188.751 128.056 189.849 128.522C190.948 128.989 192.156 129.111 193.321 128.871C194.487 128.632 195.557 128.042 196.396 127.178C197.235 126.313 197.806 125.212 198.036 124.014C198.266 122.815 198.145 121.574 197.689 120.446C197.232 119.318 196.46 118.356 195.47 117.679C194.481 117.003 193.318 116.643 192.13 116.646C191.342 116.646 190.562 116.806 189.834 117.116C189.106 117.427 188.445 117.881 187.888 118.455C187.332 119.028 186.891 119.709 186.591 120.457C186.29 121.206 186.137 122.009 186.139 122.818Z" fill="white"/>
<path d="M152.915 63.788C152.756 64.0672 152.711 64.3994 152.789 64.7125C152.868 65.0255 153.063 65.2943 153.332 65.4606L223.902 109.067C224.172 109.232 224.494 109.28 224.798 109.203C225.103 109.125 225.365 108.928 225.53 108.653C225.689 108.376 225.736 108.045 225.661 107.732C225.586 107.419 225.394 107.149 225.126 106.98L154.47 63.3735C154.199 63.2132 153.879 63.1668 153.575 63.244C153.272 63.3213 153.009 63.5162 152.843 63.788H152.915Z" fill="white"/>
<path d="M182.007 -9.33386C181.906 -9.16303 181.875 -8.95801 181.921 -8.76377C181.967 -8.56953 182.086 -8.40191 182.252 -8.2977L226.034 18.716C226.2 18.8198 226.4 18.8515 226.589 18.8044C226.778 18.7572 226.941 18.6349 227.042 18.4643C227.143 18.2935 227.174 18.0885 227.128 17.8943C227.082 17.7 226.963 17.5324 226.797 17.4282L183.001 -9.55588C182.834 -9.65373 182.637 -9.68062 182.451 -9.63082C182.265 -9.58103 182.106 -9.45851 182.007 -9.28946V-9.33386Z" fill="white"/>
<path d="M169.532 -5.11522C169.468 -5.00895 169.425 -4.89037 169.406 -4.76658C169.387 -4.64279 169.392 -4.51633 169.422 -4.39475C169.451 -4.27316 169.504 -4.15895 169.578 -4.05894C169.651 -3.95892 169.744 -3.87514 169.849 -3.81264L225.455 30.5133C225.667 30.6441 225.921 30.6833 226.162 30.6222C226.402 30.5612 226.609 30.405 226.737 30.1876C226.861 29.9686 226.897 29.7089 226.838 29.4631C226.778 29.2174 226.629 29.0048 226.42 28.8702L170.8 -5.45566C170.695 -5.51946 170.579 -5.56128 170.458 -5.57869C170.338 -5.5961 170.215 -5.58875 170.097 -5.5571C169.979 -5.52544 169.869 -5.4701 169.772 -5.39425C169.675 -5.3184 169.594 -5.22357 169.532 -5.11522Z" fill="white"/>
<circle cx="191.48" cy="49.5" r="17.5" fill="white"/>
<circle cx="191.48" cy="49.5" r="18" stroke="#00B300" stroke-opacity="0.5"/>
<path opacity="0.5" d="M183.98 49L189.48 54.5L199.98 44" stroke="#00B200" stroke-linecap="round"/>
<g style="mix-blend-mode:overlay">
<path d="M146.922 124.788C147.939 127.551 149.749 129.932 152.113 131.613C154.477 133.295 157.282 134.197 160.157 134.202H224.102C227.861 134.202 231.465 132.667 234.123 129.936C236.78 127.204 238.274 123.499 238.274 119.637V-4.41922C238.272 -7.08184 237.56 -9.69299 236.214 -11.9683L146.922 124.788Z" fill="#1B3154"/>
</g>
</g>
<defs>
<clipPath id="clip0_752_128">
<rect width="384" height="206" rx="8" fill="white"/>
</clipPath>
</defs>
</svg>
