<svg width="92" height="136" viewBox="0 0 92 136" fill="none" xmlns="http://www.w3.org/2000/svg">
    <path
        d="M77.5738 -18H14.0731C6.30075 -18 0 -11.4789 0 -3.43482V120.621C0 128.665 6.30075 135.186 14.0731 135.186H77.5738C85.3462 135.186 91.6469 128.665 91.6469 120.621V-3.43482C91.6469 -11.4789 85.3462 -18 77.5738 -18Z"
        fill="#3969B5" />
    <path
        d="M88.1572 114.952V0.325326C88.1591 -1.44286 87.8242 -3.19408 87.1717 -4.82823C86.5192 -6.46238 85.5619 -7.94741 84.3545 -9.19839C83.1471 -10.4494 81.7133 -11.4418 80.1351 -12.1189C78.5568 -12.796 76.8652 -13.1445 75.1567 -13.1445H16.5187C14.809 -13.1465 13.1158 -12.7994 11.5359 -12.1232C9.95606 -11.4469 8.52057 -10.4548 7.31167 -9.20363C6.10276 -7.95246 5.14416 -6.46678 4.49077 -4.83167C3.83739 -3.19655 3.50203 -1.44411 3.50391 0.325326V114.967L88.1572 114.952Z"
        fill="#ECE8FF" />
    <path
        d="M39.8594 123.818C39.8594 125.04 40.2095 126.234 40.8655 127.249C41.5215 128.265 42.4537 129.056 43.5443 129.522C44.6349 129.989 45.8348 130.111 46.9921 129.871C48.1494 129.632 49.212 129.042 50.0455 128.178C50.879 127.313 51.4459 126.212 51.6744 125.014C51.9029 123.815 51.7827 122.574 51.3291 121.446C50.8755 120.318 50.1089 119.356 49.1263 118.679C48.1436 118.003 46.9892 117.643 45.809 117.646C45.0265 117.646 44.2517 117.806 43.5289 118.116C42.8061 118.427 42.1496 118.881 41.5969 119.455C41.0443 120.028 40.6063 120.709 40.3082 121.457C40.01 122.206 39.8575 123.009 39.8594 123.818Z"
        fill="white" />
    <path
        d="M6.86582 64.788C6.70845 65.0672 6.66373 65.3994 6.74136 65.7125C6.819 66.0255 7.01273 66.2943 7.28057 66.4606L77.3602 110.067C77.6282 110.232 77.9479 110.28 78.2502 110.203C78.5525 110.125 78.8133 109.928 78.9763 109.653C79.1349 109.376 79.1818 109.045 79.1069 108.732C79.032 108.419 78.8413 108.149 78.5758 107.98L8.41043 64.3735C8.14149 64.2132 7.82301 64.1668 7.52173 64.244C7.22046 64.3213 6.95979 64.5162 6.79431 64.788H6.86582Z"
        fill="white" />
    <path
        d="M35.7564 -8.33386C35.6561 -8.16303 35.6254 -7.95801 35.671 -7.76377C35.7166 -7.56953 35.8347 -7.40191 35.9995 -7.2977L79.4775 19.716C79.6426 19.8198 79.8406 19.8515 80.0283 19.8044C80.216 19.7572 80.3779 19.6349 80.4786 19.4643C80.5789 19.2935 80.6096 19.0885 80.564 18.8943C80.5184 18.7 80.4003 18.5324 80.2355 18.4282L36.7432 -8.55588C36.5777 -8.65373 36.3818 -8.68062 36.1974 -8.63082C36.0129 -8.58103 35.8546 -8.45851 35.7564 -8.28946V-8.33386Z"
        fill="white" />
    <path
        d="M23.3694 -4.11522C23.3052 -4.00895 23.2624 -3.89037 23.2435 -3.76658C23.2246 -3.64279 23.23 -3.51633 23.2593 -3.39475C23.2887 -3.27316 23.3414 -3.15895 23.4144 -3.05894C23.4874 -2.95892 23.5791 -2.87514 23.6841 -2.81264L78.9039 31.5133C79.1146 31.6441 79.3667 31.6833 79.6053 31.6222C79.8438 31.5612 80.0493 31.405 80.1768 31.1876C80.2995 30.9686 80.3352 30.7089 80.2765 30.4631C80.2178 30.2174 80.0693 30.0048 79.8621 29.8702L24.628 -4.45566C24.5239 -4.51946 24.4087 -4.56128 24.2889 -4.57869C24.1691 -4.5961 24.0471 -4.58875 23.9301 -4.5571C23.8131 -4.52544 23.7033 -4.4701 23.607 -4.39425C23.5108 -4.3184 23.43 -4.22357 23.3694 -4.11522Z"
        fill="white" />
    <circle cx="45.4971" cy="50.5" r="17.5" fill="white" />
    <circle cx="45.4971" cy="50.5" r="18" stroke="#00B300" stroke-opacity="0.5" />
    <path opacity="0.5" d="M37.9971 50L43.4971 55.5L53.9971 45" stroke="#00B200"
        stroke-linecap="round" />
    <g style="mix-blend-mode:overlay">
        <path
            d="M0.916016 125.788C1.92565 128.551 3.72355 130.932 6.07106 132.613C8.41857 134.295 11.2047 135.197 14.0595 135.202H77.5602C81.2926 135.202 84.8722 133.667 87.5114 130.936C90.1506 128.204 91.6333 124.499 91.6333 120.637V-3.41922C91.6318 -6.08184 90.9244 -8.69299 89.5881 -10.9683L0.916016 125.788Z"
            fill="#1B3154" />
    </g>
</svg>
    