<svg width="20" height="20" viewBox="0 0 20 20" fill="none" xmlns="http://www.w3.org/2000/svg">
    <mask id="mask0_86_2231" style="mask-type:alpha" maskUnits="userSpaceOnUse" x="0" y="0"
        width="20" height="20">
        <rect width="20" height="20" fill="#D9D9D9" />
    </mask>
    <g mask="url(#mask0_86_2231)">
        <path
            d="M8.75065 10.8334V12.0834C8.75065 12.3195 8.83051 12.5174 8.99023 12.6772C9.14996 12.8369 9.34787 12.9167 9.58398 12.9167H10.4173C10.6534 12.9167 10.8513 12.8369 11.0111 12.6772C11.1708 12.5174 11.2507 12.3195 11.2507 12.0834V10.8334H12.5007C12.7368 10.8334 12.9347 10.7536 13.0944 10.5938C13.2541 10.4341 13.334 10.2362 13.334 10.0001V9.16675C13.334 8.93064 13.2541 8.73272 13.0944 8.573C12.9347 8.41328 12.7368 8.33342 12.5007 8.33342H11.2507V7.08342C11.2507 6.8473 11.1708 6.64939 11.0111 6.48967C10.8513 6.32994 10.6534 6.25008 10.4173 6.25008H9.58398C9.34787 6.25008 9.14996 6.32994 8.99023 6.48967C8.83051 6.64939 8.75065 6.8473 8.75065 7.08342V8.33342H7.50065C7.26454 8.33342 7.06662 8.41328 6.9069 8.573C6.74718 8.73272 6.66732 8.93064 6.66732 9.16675V10.0001C6.66732 10.2362 6.74718 10.4341 6.9069 10.5938C7.06662 10.7536 7.26454 10.8334 7.50065 10.8334H8.75065ZM10.0007 18.2501C9.90343 18.2501 9.81315 18.2431 9.72982 18.2292C9.64648 18.2154 9.56315 18.1945 9.47982 18.1667C7.60482 17.5417 6.11176 16.3855 5.00065 14.698C3.88954 13.0105 3.33398 11.1945 3.33398 9.25008V5.31258C3.33398 4.96536 3.43468 4.65286 3.63607 4.37508C3.83746 4.0973 4.09787 3.89591 4.41732 3.77091L9.41732 1.89591C9.61176 1.82647 9.80621 1.79175 10.0007 1.79175C10.1951 1.79175 10.3895 1.82647 10.584 1.89591L15.584 3.77091C15.9034 3.89591 16.1638 4.0973 16.3652 4.37508C16.5666 4.65286 16.6673 4.96536 16.6673 5.31258V9.25008C16.6673 11.1945 16.1118 13.0105 15.0007 14.698C13.8895 16.3855 12.3965 17.5417 10.5215 18.1667C10.4382 18.1945 10.3548 18.2154 10.2715 18.2292C10.1882 18.2431 10.0979 18.2501 10.0007 18.2501ZM10.0007 16.5834C11.4451 16.1251 12.6395 15.2084 13.584 13.8334C14.5284 12.4584 15.0007 10.9306 15.0007 9.25008V5.31258L10.0007 3.43758L5.00065 5.31258V9.25008C5.00065 10.9306 5.47287 12.4584 6.41732 13.8334C7.36176 15.2084 8.55621 16.1251 10.0007 16.5834Z"
            fill="#3969B5" />
    </g>
</svg>
    