<svg width="24" height="24" viewBox="0 0 24 24" fill="none" xmlns="http://www.w3.org/2000/svg">
    <g clip-path="url(#clip0_663_464)">
        <path
            d="M12 13.998C15.231 13.998 18 11.086 18 7.97104C18 5.15204 15.495 2.86304 13.666 1.19204C13.309 0.866044 12.979 0.566044 12.707 0.294044C12.512 0.0990443 12.264 -0.0219557 11.964 0.00204427C11.687 0.0120443 11.426 0.137044 11.244 0.347044C10.316 1.41704 9.981 2.82804 9.712 3.96204C9.694 4.03504 9.676 4.11304 9.657 4.19204C9.607 3.84304 9.376 3.54204 9.042 3.40704C8.668 3.25404 8.232 3.34504 7.949 3.63704C7.363 4.24104 6 5.87404 6 7.97104C6 11.086 8.769 13.998 12 13.998ZM12.707 11.707C12.583 11.831 12.436 11.941 12 11.971C11.564 12.001 11.417 11.832 11.293 11.707C10.903 11.317 10.903 10.683 11.293 10.293L12 9.58604L12.707 10.293C13.097 10.683 13.097 11.317 12.707 11.707ZM8.392 6.43004C8.721 6.77904 9.166 7.00004 9.736 7.00004C11.047 7.00004 11.372 5.63104 11.659 4.42304C11.804 3.81304 11.961 3.15104 12.209 2.56904C13.763 3.98904 16.001 6.03304 16.001 7.97004C16.001 8.99504 15.613 9.93104 14.977 10.64C14.9 9.99604 14.615 9.37204 14.122 8.87804L12.708 7.46404C12.317 7.07304 11.685 7.07304 11.294 7.46404L9.88 8.87804C9.387 9.37104 9.102 9.99504 9.025 10.64C8.389 9.93204 8.001 8.99504 8.001 7.97004C8.001 7.41004 8.17 6.88204 8.393 6.42904L8.392 6.43004ZM22 18.172V17C22 14.794 20.206 13 18 13C17.447 13 17 13.447 17 14C17 14.553 17.447 15 18 15C19.103 15 20 15.897 20 17V18H4V17C4 15.897 4.897 15 6 15C6.553 15 7 14.553 7 14C7 13.447 6.553 13 6 13C3.794 13 2 14.794 2 17V18.172C0.836 18.585 0 19.696 0 21C0 22.654 1.346 24 3 24H21C22.654 24 24 22.654 24 21C24 19.696 23.164 18.585 22 18.172ZM7 22H3C2.448 22 2 21.552 2 21C2 20.448 2.448 20 3 20H7V22ZM11 22H9V20H11V22ZM15 22H13V20H15V22ZM21 22H17V20H21C21.552 20 22 20.448 22 21C22 21.552 21.552 22 21 22Z"
            fill="#3969B5" />
    </g>
    <defs>
        <clipPath id="clip0_663_464">
            <rect width="24" height="24" fill="white" />
        </clipPath>
    </defs>
</svg>
    