<svg width="24" height="24" viewBox="0 0 24 24" fill="none" xmlns="http://www.w3.org/2000/svg">
    <g clip-path="url(#clip0_663_440)">
        <path
            d="M11.9998 12C15.3088 12 17.9998 9.309 17.9998 6C17.9998 2.691 15.3088 0 11.9998 0C8.69079 0 5.99979 2.691 5.99979 6C5.99979 9.309 8.69079 12 11.9998 12ZM11.9998 2C14.2058 2 15.9998 3.794 15.9998 6C15.9998 8.206 14.2058 10 11.9998 10C9.79379 10 7.99979 8.206 7.99979 6C7.99979 3.794 9.79379 2 11.9998 2ZM21.9358 22.89C21.9968 23.439 21.6318 24 20.9398 24C20.4368 24 20.0038 23.622 19.9468 23.11C19.4988 19.057 16.0818 16 11.9998 16C7.91779 16 4.50079 19.057 4.05279 23.11C3.99179 23.659 3.49379 24.057 2.94879 23.994C2.39979 23.933 2.00379 23.439 2.06479 22.89C2.62579 17.822 6.89779 14 12.0008 14C17.1038 14 21.3748 17.822 21.9358 22.89ZM17.8798 22.801C17.9898 23.343 17.6398 23.87 17.0988 23.98C17.0318 23.994 16.9648 24 16.8988 24C16.4328 24 16.0158 23.673 15.9198 23.199C15.5438 21.345 13.8948 20 12.0008 20C10.1068 20 8.45779 21.345 8.08179 23.199C7.97179 23.74 7.44779 24.092 6.90279 23.98C6.36179 23.87 6.01179 23.342 6.12179 22.801C6.68679 20.019 9.15979 18 12.0008 18C14.8418 18 17.3148 20.019 17.8798 22.801Z"
            fill="#3969B5" />
    </g>
    <defs>
        <clipPath id="clip0_663_440">
            <rect width="24" height="24" fill="white" />
        </clipPath>
    </defs>
</svg>
    