<svg width="24" height="24" viewBox="0 0 24 24" fill="none" xmlns="http://www.w3.org/2000/svg">
    <g clip-path="url(#clip0_662_381)">
        <path
            d="M23.2298 23.973C22.9721 24.033 22.701 23.9884 22.4761 23.8489C22.2512 23.7095 22.0907 23.4865 22.0298 23.229C21.3298 20.283 16.7138 20.314 15.9728 23.245C15.9407 23.3724 15.8837 23.4922 15.8052 23.5975C15.7268 23.7029 15.6283 23.7918 15.5155 23.8591C15.4027 23.9264 15.2777 23.9709 15.1477 23.9899C15.0177 24.0089 14.8852 24.0022 14.7578 23.97C14.6305 23.9378 14.5107 23.8809 14.4053 23.8024C14.2999 23.7239 14.211 23.6255 14.1437 23.5126C14.0764 23.3998 14.0319 23.2748 14.0129 23.1448C13.9939 23.0148 14.0007 22.8824 14.0328 22.755C15.2638 17.808 22.8058 17.82 23.9758 22.771C24.0058 22.8989 24.0103 23.0315 23.989 23.1611C23.9678 23.2907 23.9212 23.4149 23.8519 23.5266C23.7826 23.6382 23.692 23.7351 23.5853 23.8117C23.4785 23.8883 23.3578 23.9431 23.2298 23.973ZM8.85483 19.251C9.03988 19.7397 9.02626 20.2815 8.8169 20.7604C8.60753 21.2392 8.21905 21.6171 7.73459 21.8131C7.25014 22.0091 6.70819 22.0078 6.22474 21.8093C5.74129 21.6107 5.35475 21.2309 5.14783 20.751L5.07183 20.566C4.22404 20.6326 3.37702 20.4279 2.65315 19.9816C1.92929 19.5353 1.36606 18.8704 1.04483 18.083L0.515834 16.783C0.147753 15.6889 -0.0265289 14.539 0.000834202 13.385C0.000834202 13.385 0.121834 8.14298 0.125834 8.10598C0.244243 7.23261 0.590865 6.40591 1.13074 5.70925C1.67061 5.01259 2.38465 4.47062 3.20083 4.13798L10.3088 1.36298C11.1238 1.03351 12.0113 0.924742 12.8818 1.04764C13.7522 1.17053 14.5749 1.52075 15.2668 2.06298L19.0848 5.53898C20.0203 6.33392 20.7396 7.35249 21.1758 8.49998L21.7058 9.79998C22.0086 10.5503 22.0777 11.3746 21.904 12.1649C21.7304 12.9552 21.3222 13.6746 20.7328 14.229L20.8018 14.397C20.996 14.8827 20.9921 15.4251 20.791 15.908C20.59 16.3908 20.2078 16.7757 19.7263 16.9802C19.2449 17.1846 18.7025 17.1923 18.2155 17.0016C17.7284 16.8109 17.3355 16.437 17.1208 15.96L8.85483 19.251ZM2.11583 8.32098L2.00083 13.383L17.8008 7.06998L13.9748 3.59298C13.5609 3.28297 13.0735 3.08571 12.5605 3.0205C12.0474 2.95529 11.5262 3.02437 11.0478 3.22098L3.93983 5.99998C3.46151 6.1968 3.0422 6.51394 2.72261 6.92062C2.40301 7.32729 2.19399 7.80969 2.11583 8.32098ZM5.50083 18.432L18.7558 13.16C19.2458 12.9603 19.6367 12.5745 19.8429 12.0872C20.0491 11.5999 20.0537 11.0507 19.8558 10.56L19.3268 9.25998C19.2508 9.07398 19.1678 8.89298 19.0798 8.71998L17.2458 9.45298L17.6268 10.39C17.7267 10.6357 17.7248 10.911 17.6217 11.1554C17.5185 11.3998 17.3226 11.5931 17.0768 11.693C16.8311 11.7928 16.5558 11.791 16.3114 11.6878C16.0671 11.5847 15.8737 11.3887 15.7738 11.143L15.3888 10.195L5.86683 13.992L6.22983 14.907C6.31906 15.1515 6.3094 15.4213 6.20291 15.6588C6.09642 15.8963 5.90149 16.083 5.65955 16.1791C5.41762 16.2752 5.14774 16.2732 4.90728 16.1734C4.66682 16.0737 4.47473 15.8841 4.37183 15.645L4.00983 14.734L2.20083 15.458C2.24249 15.6524 2.30002 15.843 2.37283 16.028L2.90183 17.328C3.10079 17.8185 3.48606 18.2101 3.97322 18.417C4.46038 18.6239 5.00971 18.6293 5.50083 18.432Z"
            fill="#3969B5" />
    </g>
    <defs>
        <clipPath id="clip0_662_381">
            <rect width="24" height="24" fill="white" />
        </clipPath>
    </defs>
</svg>
    