<svg width="24" height="24" viewBox="0 0 24 24" fill="none" xmlns="http://www.w3.org/2000/svg">
    <g clip-path="url(#clip0_663_461)">
        <path
            d="M15.843 20.249C15.566 21.3228 14.9399 22.274 14.0632 22.953C13.1865 23.632 12.1089 24.0003 11 24H5C3.67441 23.9984 2.40356 23.4711 1.46622 22.5338C0.528882 21.5964 0.00158786 20.3256 0 19L0 6.00001C0 5.73479 0.105357 5.48043 0.292893 5.2929C0.48043 5.10536 0.734784 5 1 5C1.26522 5 1.51957 5.10536 1.70711 5.2929C1.89464 5.48043 2 5.73479 2 6.00001V9H4C4.26522 9 4.51957 9.10536 4.70711 9.2929C4.89464 9.48043 5 9.73479 5 10C5 10.2652 4.89464 10.5196 4.70711 10.7071C4.51957 10.8946 4.26522 11 4 11H2V19C2 19.7957 2.31607 20.5587 2.87868 21.1213C3.44129 21.6839 4.20435 22 5 22H11C11.6641 21.999 12.3092 21.7777 12.834 21.3707C13.3588 20.9637 13.7337 20.394 13.9 19.751C13.9328 19.6238 13.9904 19.5042 14.0694 19.3992C14.1485 19.2942 14.2474 19.2058 14.3606 19.139C14.4738 19.0723 14.599 19.0285 14.7291 19.0101C14.8593 18.9917 14.9917 18.9992 15.119 19.032C15.2463 19.0648 15.3658 19.1224 15.4708 19.2014C15.5758 19.2805 15.6642 19.3794 15.731 19.4926C15.7977 19.6058 15.8415 19.731 15.8599 19.8612C15.8783 19.9913 15.8708 20.1238 15.838 20.251L15.843 20.249ZM24 18C23.9999 18.5884 23.8267 19.1638 23.502 19.6546C23.1773 20.1453 22.7155 20.5297 22.174 20.76L23.707 22.293C23.8892 22.4816 23.99 22.7342 23.9877 22.9964C23.9854 23.2586 23.8802 23.5094 23.6948 23.6948C23.5094 23.8802 23.2586 23.9854 22.9964 23.9877C22.7342 23.99 22.4816 23.8892 22.293 23.707L0.293 1.707C0.110842 1.5184 0.0100475 1.2658 0.012326 1.0036C0.0146044 0.741406 0.119773 0.490594 0.305181 0.305186C0.49059 0.119777 0.741402 0.0146085 1.0036 0.0123301C1.2658 0.0100517 1.5184 0.110846 1.707 0.293004L2.242 0.828004C3.05989 0.286758 4.01924 -0.00125608 5 4.11783e-06H11C12.3256 0.00159198 13.5964 0.528886 14.5338 1.46622C15.4711 2.40356 15.9984 3.67441 16 5V14.586L20.414 19H21C21.2652 19 21.5196 18.8946 21.7071 18.7071C21.8946 18.5196 22 18.2652 22 18V8C21.4696 8 20.9609 7.78929 20.5858 7.41422C20.2107 7.03915 20 6.53044 20 6.00001V3.414L18.293 1.707C18.1108 1.5184 18.01 1.2658 18.0123 1.0036C18.0146 0.741406 18.1198 0.490594 18.3052 0.305186C18.4906 0.119777 18.7414 0.0146085 19.0036 0.0123301C19.2658 0.0100517 19.5184 0.110846 19.707 0.293004L21.697 2.283L21.717 2.303L22.242 2.828C23.3411 3.91952 23.9717 5.39628 24 6.94501C24 6.96301 24 18 24 18ZM14 11H12.414L14 12.586V11ZM3.707 2.293L10.414 9H14V5C14 4.20436 13.6839 3.44129 13.1213 2.87868C12.5587 2.31607 11.7956 2 11 2H5C4.55254 2.00002 4.11076 2.10013 3.707 2.293Z"
            fill="#3969B5" />
    </g>
    <defs>
        <clipPath id="clip0_663_461">
            <rect width="24" height="24" fill="white" />
        </clipPath>
    </defs>
</svg>
    