<svg width="24" height="24" viewBox="0 0 24 24" fill="none" xmlns="http://www.w3.org/2000/svg">
    <g clip-path="url(#clip0_662_328)">
        <path
            d="M22.083 6.56405L15.083 1.08005C13.268 -0.34195 10.731 -0.34195 8.916 1.08005L1.917 6.56405C0.699 7.51705 0 8.95205 0 10.5V19C0 21.757 2.243 24 5 24H19C21.757 24 24 21.757 24 19V10.5C24 8.95205 23.301 7.51805 22.083 6.56405ZM22 19C22 20.654 20.654 22 19 22H5C3.346 22 2 20.654 2 19V10.5C2 9.57105 2.419 8.71105 3.15 8.13905L10.15 2.65505C10.695 2.22805 11.347 2.01505 12 2.01505C12.653 2.01505 13.306 2.22805 13.85 2.65505L20.85 8.13905C21.581 8.71105 22 9.57205 22 10.5V19ZM11 14V9.00005C11 8.44705 11.448 8.00005 12 8.00005C12.552 8.00005 13 8.44705 13 9.00005V14C13 14.553 12.552 15 12 15C11.448 15 11 14.553 11 14ZM16.771 10.396C18.567 12.772 18.34 16.1451 16.243 18.2421C15.11 19.3761 13.603 20 12 20C10.397 20 8.891 19.3761 7.757 18.2421C5.66 16.1451 5.433 12.772 7.229 10.396C7.562 9.95605 8.188 9.86705 8.63 10.202C9.07 10.535 9.158 11.162 8.825 11.603C7.627 13.186 7.777 15.433 9.172 16.828C10.684 18.34 13.318 18.34 14.829 16.828C16.224 15.433 16.373 13.186 15.176 11.603C14.843 11.162 14.93 10.535 15.371 10.202C15.812 9.86705 16.437 9.95605 16.771 10.396Z"
            fill="#3969B5" />
    </g>
    <defs>
        <clipPath id="clip0_662_328">
            <rect width="24" height="24" fill="white" />
        </clipPath>
    </defs>
</svg>
    