<svg width="24" height="24" viewBox="0 0 24 24" fill="none" xmlns="http://www.w3.org/2000/svg">
    <g clip-path="url(#clip0_662_351)">
        <path
            d="M19 0H5C2.239 0 0 2.239 0 5V19C0 21.761 2.239 24 5 24H19C21.761 24 24 21.761 24 19V5C24 2.239 21.761 0 19 0ZM19 2C20.654 2 22 3.346 22 5V19C22 19.463 21.895 19.901 21.707 20.293L15.115 13.7C16.801 13.05 18.001 11.412 18.001 9.5C18.001 7.019 15.982 5 13.501 5H11.001C9.775 5 8.642 5.563 7.896 6.48L3.708 2.293C4.1 2.105 4.538 2 5 2H19ZM13.414 12L9.323 7.909C9.687 7.352 10.315 7 11 7H13.5C14.879 7 16 8.122 16 9.5C16 10.878 14.879 12 13.5 12H13.414ZM5 22C3.346 22 2 20.654 2 19V5C2 4.537 2.105 4.099 2.293 3.707L20.292 21.707C19.9 21.895 19.462 22 19 22H5ZM9 13V18C9 18.552 8.553 19 8 19C7.447 19 7 18.552 7 18V13C7 12.448 7.447 12 8 12C8.553 12 9 12.448 9 13Z"
            fill="#3969B5" />
    </g>
    <defs>
        <clipPath id="clip0_662_351">
            <rect width="24" height="24" fill="white" />
        </clipPath>
    </defs>
</svg>
    