<svg width="24" height="24" viewBox="0 0 24 24" fill="none" xmlns="http://www.w3.org/2000/svg">
    <path
        d="M10.0002 2.5C10.0002 1.119 11.1192 0 12.5002 0C13.8812 0 15.0002 1.119 15.0002 2.5C15.0002 3.881 13.8812 5 12.5002 5C11.1192 5 10.0002 3.881 10.0002 2.5ZM20.0002 14V23C20.0002 23.552 19.5522 24 19.0002 24C18.4482 24 18.0002 23.552 18.0002 23V14.599C16.6322 13.82 15.1842 12.658 13.9832 11.403C13.9202 12.766 13.9422 14.429 13.9682 16.282L13.9892 17.963C13.9972 18.772 13.6882 19.534 13.1192 20.109C12.7992 20.432 12.4152 20.664 12.0012 20.813V23C12.0012 23.552 11.5532 24 11.0012 24C10.4492 24 10.0012 23.552 10.0012 23V21H8.0012V23C8.0012 23.552 7.5532 24 7.0012 24C6.4492 24 6.0012 23.552 6.0012 23V20.812C5.5742 20.658 5.1822 20.418 4.8572 20.08C4.2842 19.483 3.9862 18.698 4.0202 17.868C4.3272 10.215 6.6282 6 10.5012 6C12.2312 5.891 13.4602 7.409 14.3092 8.709C15.5732 10.416 17.6862 12.224 19.4492 13.105C19.7882 13.274 20.0022 13.621 20.0022 14H20.0002ZM11.6892 8.535C11.3852 8.189 10.9612 8 10.5002 8C6.7112 8 6.1112 15.615 6.0172 17.948C5.9832 18.505 6.4572 19.012 7.0172 19H10.9882C11.5292 19.012 12.0072 18.524 11.9882 17.984L11.9672 16.309C11.9312 13.634 11.9022 11.52 12.0962 9.857C12.1522 9.372 12.0042 8.891 11.6892 8.535Z"
        fill="#3969B5" />
</svg>
    