<svg width="24" height="24" viewBox="0 0 24 24" fill="none" xmlns="http://www.w3.org/2000/svg">
    <g clip-path="url(#clip0_663_488)">
        <path
            d="M22.5357 8.4599L15.5367 1.4589C14.5917 0.514897 13.3367 -0.00610352 12.0007 -0.00610352C10.6647 -0.00610352 9.40866 0.514897 8.46466 1.4589L1.46566 8.4599C-0.483344 10.4089 -0.483344 13.5799 1.46566 15.5289L8.46466 22.5299C9.40866 23.4739 10.6647 23.9949 12.0007 23.9949C13.3367 23.9949 14.5917 23.4739 15.5367 22.5299L22.5357 15.5289C23.4797 14.5849 23.9997 13.3299 23.9997 11.9949C23.9997 10.6599 23.4797 9.4039 22.5357 8.4599ZM21.1217 14.1149L14.1227 21.1159C12.9887 22.2489 11.0127 22.2489 9.87866 21.1159L2.87966 14.1149C1.71066 12.9459 1.71066 11.0429 2.87966 9.8739L9.87866 2.8729C10.4457 2.3069 11.1987 1.9939 12.0007 1.9939C12.8027 1.9939 13.5557 2.3059 14.1227 2.8729L21.1217 9.8739C21.6877 10.4399 21.9997 11.1929 21.9997 11.9949C21.9997 12.7969 21.6877 13.5489 21.1217 14.1149ZM13.4997 16.4999C13.4997 17.3279 12.8277 17.9999 11.9997 17.9999C11.1717 17.9999 10.4997 17.3279 10.4997 16.4999C10.4997 15.6719 11.1717 14.9999 11.9997 14.9999C12.8277 14.9999 13.4997 15.6719 13.4997 16.4999ZM10.9997 12.4999V6.9999C10.9997 6.4469 11.4477 5.9999 11.9997 5.9999C12.5517 5.9999 12.9997 6.4469 12.9997 6.9999V12.4999C12.9997 13.0529 12.5517 13.4999 11.9997 13.4999C11.4477 13.4999 10.9997 13.0529 10.9997 12.4999Z"
            fill="#3969B5" />
    </g>
    <defs>
        <clipPath id="clip0_663_488">
            <rect width="24" height="24" fill="white" />
        </clipPath>
    </defs>
</svg>
    