<svg width="24" height="24" viewBox="0 0 24 24" fill="none" xmlns="http://www.w3.org/2000/svg">
    <g clip-path="url(#clip0_662_366)">
        <path
            d="M1.673 13.937C1.82152 15.0529 2.15973 16.1352 2.673 17.137L3.206 18.167C3.69653 18.9802 4.4613 19.5916 5.36257 19.891C6.26384 20.1904 7.24239 20.1581 8.122 19.8L8.267 20.039C8.53885 20.4906 8.97893 20.8156 9.49044 20.9427C10.0019 21.0697 10.543 20.9884 10.9945 20.7165C11.446 20.4447 11.7711 20.0046 11.8981 19.4931C12.0252 18.9816 11.9438 18.4406 11.672 17.989L11.606 17.878L18.616 13.949L18.809 14.27C18.9425 14.496 19.1194 14.6934 19.3296 14.8507C19.5397 15.0079 19.779 15.122 20.0334 15.1864C20.2879 15.2507 20.5526 15.264 20.8123 15.2255C21.0719 15.187 21.3214 15.0975 21.5462 14.9621C21.7711 14.8266 21.9669 14.648 22.1224 14.4366C22.2779 14.2251 22.39 13.9849 22.4521 13.7299C22.5143 13.4749 22.5254 13.2101 22.4847 12.9507C22.444 12.6914 22.3523 12.4427 22.215 12.219L21.992 11.849C22.4612 11.352 22.7937 10.7418 22.957 10.078C23.0841 9.58191 23.1123 9.06559 23.0399 8.55857C22.9675 8.05155 22.7959 7.56375 22.535 7.12304L22 6.09104C21.3941 5.03275 20.5307 4.14462 19.49 3.50904L15.2 0.688039C14.444 0.26381 13.5899 0.045349 12.7231 0.0544738C11.8562 0.0635986 11.0069 0.299989 10.26 0.740039L3.388 4.35704C2.63711 4.8101 2.01906 5.45328 1.59626 6.22162C1.17346 6.98996 0.960888 7.85626 0.98 8.73304C0.981 8.77004 1.673 13.937 1.673 13.937ZM20.79 8.09404C21.0599 8.54221 21.1417 9.07893 21.0175 9.58715C20.8933 10.0954 20.5732 10.5339 20.127 10.807L7.637 17.807C7.41425 17.9418 7.16703 18.0312 6.90959 18.07C6.65215 18.1087 6.38957 18.0962 6.137 18.033C5.64716 17.9162 5.22169 17.614 4.95 17.19L4.417 16.16C4.31859 15.9918 4.23398 15.8159 4.164 15.634L5.827 14.687L6.327 15.495C6.39152 15.6151 6.4799 15.7206 6.58669 15.8053C6.69349 15.8899 6.81646 15.9518 6.94805 15.9872C7.07964 16.0226 7.21707 16.0307 7.35192 16.0111C7.48676 15.9915 7.61617 15.9445 7.7322 15.873C7.84822 15.8015 7.94842 15.7071 8.02664 15.5955C8.10486 15.484 8.15945 15.3576 8.18705 15.2241C8.21466 15.0907 8.2147 14.953 8.18718 14.8196C8.15966 14.6861 8.10515 14.5597 8.027 14.448L7.565 13.7L16.533 8.59304L17.093 9.52204C17.2315 9.7457 17.4526 9.90576 17.7083 9.96753C17.9641 10.0293 18.2338 9.98781 18.4592 9.85205C18.6845 9.71629 18.8473 9.4972 18.9122 9.24225C18.9771 8.9873 18.939 8.71704 18.806 8.49004L18.272 7.60004L19.972 6.63204C20.072 6.77104 20.172 6.91504 20.258 7.06304L20.79 8.09404ZM4.369 6.10004L11.241 2.48304C11.6796 2.21693 12.1798 2.06937 12.6925 2.05482C13.2053 2.04027 13.7131 2.15923 14.166 2.40004L18.436 5.21004L3.649 13.626L2.979 8.63604C2.97464 8.12977 3.10012 7.63084 3.34347 7.18687C3.58681 6.7429 3.93989 6.36872 4.369 6.10004ZM24 23C24 23.2653 23.8946 23.5196 23.7071 23.7071C23.5196 23.8947 23.2652 24 23 24H1C0.734784 24 0.48043 23.8947 0.292893 23.7071C0.105357 23.5196 0 23.2653 0 23C0 22.7348 0.105357 22.4805 0.292893 22.2929C0.48043 22.1054 0.734784 22 1 22H23C23.2652 22 23.5196 22.1054 23.7071 22.2929C23.8946 22.4805 24 22.7348 24 23Z"
            fill="#3969B5" />
    </g>
    <defs>
        <clipPath id="clip0_662_366">
            <rect width="24" height="24" fill="white" />
        </clipPath>
    </defs>
</svg>
    