<svg width="24" height="24" viewBox="0 0 24 24" fill="none" xmlns="http://www.w3.org/2000/svg">
    <g clip-path="url(#clip0_663_416)">
        <path
            d="M9.00095 8.792C9.00095 9.229 8.46695 10 7.50095 10C6.53495 10 6.00095 9.229 6.00095 8.792C6.00095 8.355 6.53495 8 7.50095 8C8.46695 8 9.00095 8.354 9.00095 8.792ZM16.501 19C17.467 19 18.001 18.229 18.001 17.792C18.001 17.355 17.467 17 16.501 17C15.535 17 15.001 17.354 15.001 17.792C15.001 18.23 15.535 19 16.501 19ZM7.82695 15H7.17595C2.75095 15 0.00195336 13.049 0.00195336 9.908C0.00195336 9.152 0.390953 8.202 1.03795 7.296C0.414953 7.032 0.00195336 6.484 0.00195336 5.5C0.000953358 4 3.22295 0 4.46295 0C5.37195 0 5.97395 0.366 6.87495 1.032C7.07795 1.015 7.28395 1 7.50195 1C7.71995 1 7.92595 1.015 8.12895 1.032C9.02895 0.366 9.63195 0 10.541 0C11.78 0 15.003 4 15.003 5.5C15.003 6.484 14.59 7.032 13.967 7.296C14.613 8.202 15.003 9.151 15.003 9.908C15.003 13.049 12.254 15 7.82895 15H7.82695ZM13.001 9.908C13.001 9.611 12.675 8.672 11.669 7.666C11.486 7.484 11.381 7.237 11.376 6.979C11.365 6.575 11.157 3 7.50095 3C3.84495 3 3.63695 6.575 3.62595 6.983C3.61895 7.238 3.51395 7.485 3.33395 7.666C2.32795 8.672 2.00195 9.611 2.00195 9.908C2.00195 12.777 5.96195 13 7.17595 13H7.82695C9.04095 13 13.001 12.777 13.001 9.908ZM23.405 10.804L23.001 8.756C22.882 8.101 22.128 7.786 21.578 8.162L19.501 10.25C19.044 10.036 18.57 9.875 18.083 9.765C17.516 9.637 16.97 10.053 16.906 10.63C16.906 10.639 16.904 10.647 16.903 10.656C16.846 11.163 17.184 11.611 17.679 11.735C18.58 11.961 19.282 12.386 19.688 12.699C20.16 12.987 22.046 14.333 22 17.471C21.963 19.988 19.875 22.001 17.358 22.001H15.703C13.177 22.001 11.075 20.009 11.001 17.501C11.001 16.949 10.553 16.501 10.001 16.501C9.44895 16.501 9.00095 16.949 9.00095 17.501C9.09995 21.096 12.083 24.001 15.706 24.001H17.367C21.046 24.001 24.008 20.991 24.001 17.313C23.996 14.088 23.43 10.937 23.405 10.805V10.804Z"
            fill="#3969B5" />
    </g>
    <defs>
        <clipPath id="clip0_663_416">
            <rect width="24" height="24" fill="white" />
        </clipPath>
    </defs>
</svg>
    