<svg width="24" height="24" viewBox="0 0 24 24" fill="none" xmlns="http://www.w3.org/2000/svg">
    <g clip-path="url(#clip0_663_494)">
        <path
            d="M16.181 7.207L13.388 10L16.181 12.793C16.572 13.184 16.572 13.816 16.181 14.207C15.986 14.402 15.73 14.5 15.474 14.5C15.218 14.5 14.962 14.402 14.767 14.207L11.974 11.414L9.181 14.207C8.986 14.402 8.73 14.5 8.474 14.5C8.218 14.5 7.962 14.402 7.767 14.207C7.376 13.816 7.376 13.184 7.767 12.793L10.56 10L7.767 7.207C7.376 6.816 7.376 6.184 7.767 5.793C8.158 5.402 8.79 5.402 9.181 5.793L11.974 8.586L14.767 5.793C15.158 5.402 15.79 5.402 16.181 5.793C16.572 6.184 16.572 6.816 16.181 7.207ZM24 4V16C24 18.206 22.206 20 20 20H17.148L13.301 23.18C12.939 23.502 12.475 23.664 12.008 23.664C11.532 23.664 11.053 23.496 10.671 23.157L6.923 20H4C1.794 20 0 18.206 0 16V4C0 1.794 1.794 0 4 0H20C22.206 0 24 1.794 24 4ZM22 4C22 2.897 21.103 2 20 2H4C2.897 2 2 2.897 2 4V16C2 17.103 2.897 18 4 18H7.289C7.525 18 7.753 18.083 7.934 18.235L11.981 21.645L16.152 18.229C16.331 18.081 16.557 18 16.789 18H20C21.103 18 22 17.103 22 16V4Z"
            fill="#3969B5" />
    </g>
    <defs>
        <clipPath id="clip0_663_494">
            <rect width="24" height="24" fill="white" />
        </clipPath>
    </defs>
</svg>
    