<svg width="24" height="24" viewBox="0 0 24 24" fill="none" xmlns="http://www.w3.org/2000/svg">
    <g clip-path="url(#clip0_663_482)">
        <path
            d="M24 12C24 18.617 18.617 24 12 24C8.924 24 5.999 22.838 3.764 20.728C3.363 20.348 3.344 19.715 3.723 19.314C4.103 18.913 4.735 18.896 5.137 19.273C6.999 21.032 9.437 22.001 12 22.001C17.514 22.001 22 17.515 22 12.001C22 6.487 17.514 2 12 2C8.224 2 4.81 4.09 3.09 7.455C2.839 7.946 2.236 8.141 1.744 7.891C1.252 7.639 1.057 7.037 1.308 6.545C3.373 2.508 7.469 0 12 0C18.617 0 24 5.383 24 12ZM17.726 8.962C17.818 8.987 17.91 9 18.001 9C18.436 9 18.836 8.714 18.962 8.274C19.114 7.743 18.806 7.19 18.275 7.038C17.31 6.763 16.298 6.097 15.815 5.419C15.495 4.971 14.87 4.864 14.42 5.187C13.971 5.507 13.866 6.132 14.187 6.582C14.933 7.627 16.322 8.561 17.727 8.963L17.726 8.962ZM8.186 5.419C7.702 6.097 6.69 6.763 5.726 7.038C5.195 7.19 4.887 7.743 5.039 8.274C5.164 8.713 5.565 9 6 9C6.091 9 6.183 8.987 6.275 8.962C7.679 8.561 9.068 7.626 9.815 6.581C10.136 6.132 10.031 5.507 9.582 5.186C9.132 4.865 8.508 4.969 8.187 5.418L8.186 5.419ZM8.5 11C7.672 11 7 11.672 7 12.5C7 13.328 7.672 14 8.5 14C9.328 14 10 13.328 10 12.5C10 11.672 9.328 11 8.5 11ZM15.5 14C16.328 14 17 13.328 17 12.5C17 11.672 16.328 11 15.5 11C14.672 11 14 11.672 14 12.5C14 13.328 14.672 14 15.5 14ZM8.037 17.96C7.859 18.47 8.261 19 8.802 19C10.346 19 13.652 19 15.186 19C15.724 19 16.127 18.476 15.954 17.967C15.467 16.535 13.914 15.001 12 15.001C10.086 15.001 8.537 16.532 8.037 17.961V17.96ZM5 14.5C5 13.097 3.816 11.128 3.078 10.265C2.775 9.91 2.229 9.912 1.927 10.269C1.189 11.143 0 13.13 0 14.5C0 15.881 1.119 17 2.5 17C3.881 17 5 15.881 5 14.5Z"
            fill="#3969B5" />
    </g>
    <defs>
        <clipPath id="clip0_663_482">
            <rect width="24" height="24" fill="white" />
        </clipPath>
    </defs>
</svg>
    