<svg width="24" height="24" viewBox="0 0 24 24" fill="none" xmlns="http://www.w3.org/2000/svg">
    <g clip-path="url(#clip0_663_497)">
        <path
            d="M16.001 2.50002C16.001 1.67202 16.673 1.00002 17.501 1.00002C18.329 1.00002 19.001 1.67202 19.001 2.50002C19.001 3.32802 18.329 4.00002 17.501 4.00002C16.673 4.00002 16.001 3.32802 16.001 2.50002ZM8.81995 4.05202C9.56895 4.17302 10.248 4.48602 10.844 4.91302C10.938 4.62302 11.001 4.32002 11.001 3.99902C11.001 3.89802 10.981 3.80302 10.971 3.70502C11.273 3.88802 11.623 3.99902 12.001 3.99902C13.104 3.99902 14.001 3.10202 14.001 1.99902C14.001 0.896023 13.104 -0.000976562 12.001 -0.000976562C10.967 -0.000976562 10.125 0.790023 10.022 1.79602C9.48795 1.30602 8.78195 0.999023 8.00095 0.999023C6.34695 0.999023 5.00095 2.34502 5.00095 3.99902C5.00095 4.30802 5.06195 4.60102 5.14895 4.88202C6.21195 4.14302 7.52295 3.84002 8.81995 4.05202ZM23.173 17.811L19.041 21.943C17.661 23.323 15.848 24.013 14.036 24.013C12.224 24.013 10.411 23.323 9.03095 21.943L7.05195 19.964C5.72995 18.642 5.00195 16.884 5.00195 15.014V8.99902C5.00195 8.11802 5.38695 7.28502 6.05895 6.71302C6.72995 6.14202 7.61995 5.89702 8.49795 6.03902C9.71595 6.23702 10.679 7.22602 10.935 8.45502L13.613 5.77702C14.165 5.22402 14.934 4.94202 15.707 5.00702C16.486 5.07002 17.197 5.47302 17.658 6.11202C17.71 6.18402 17.747 6.26302 17.79 6.33902C18.313 5.92702 18.965 5.71402 19.64 5.76602C20.418 5.82902 21.129 6.23202 21.59 6.87202C22.001 7.44202 22.132 8.15002 22.019 8.83002C22.547 9.00602 23.015 9.34002 23.35 9.80402C24.099 10.844 23.95 12.343 23.002 13.291L22.709 13.584C23.023 13.77 23.303 14.017 23.523 14.322C24.272 15.363 24.123 16.862 23.175 17.809L23.173 17.811ZM21.898 15.492C21.737 15.269 21.523 15.221 21.41 15.212C21.218 15.195 21.028 15.265 20.891 15.402L18.785 17.508C18.394 17.899 17.762 17.899 17.371 17.508C16.98 17.117 16.98 16.485 17.371 16.094L21.586 11.879C21.843 11.621 21.905 11.224 21.725 10.975C21.564 10.751 21.35 10.703 21.237 10.694C21.037 10.679 20.854 10.748 20.717 10.884L16.439 15.162C16.048 15.553 15.416 15.553 15.025 15.162C14.634 14.771 14.634 14.139 15.025 13.748L19.826 8.94702C20.083 8.68902 20.145 8.29202 19.965 8.04302C19.804 7.81902 19.59 7.77102 19.477 7.76202C19.277 7.74702 19.094 7.81602 18.957 7.95202L14.093 12.816C13.898 13.011 13.642 13.109 13.386 13.109C13.13 13.109 12.874 13.011 12.679 12.816C12.288 12.425 12.288 11.793 12.679 11.402L15.894 8.18702C16.152 7.92902 16.213 7.53202 16.033 7.28302C15.872 7.06002 15.658 7.01102 15.545 7.00202C15.352 6.98502 15.162 7.05502 15.025 7.19202L10.707 11.51C10.421 11.796 9.98995 11.881 9.61695 11.727C9.24295 11.572 8.99995 11.207 8.99995 10.803V9.10602C8.99995 8.56802 8.63795 8.08802 8.17595 8.01402C7.87195 7.96402 7.58095 8.04402 7.35295 8.23702C7.12895 8.42702 6.99995 8.70502 6.99995 8.99902V15.014C6.99995 16.349 7.51995 17.605 8.46395 18.55L10.443 20.529C12.423 22.509 15.645 22.509 17.626 20.529L21.758 16.397C22.016 16.139 22.078 15.742 21.898 15.492ZM6.56595 22.164C6.23295 21.958 5.92295 21.712 5.69895 21.493L3.18795 18.532C2.42195 17.63 2.00095 16.481 2.00095 15.298V9.00002C2.00095 8.70602 2.12895 8.42802 2.35395 8.23802C2.58195 8.04502 2.87595 7.96702 3.17695 8.01402C3.72595 8.10802 4.23595 7.73202 4.32395 7.18802C4.41295 6.64302 4.04295 6.12902 3.49795 6.04102C2.61895 5.89802 1.72995 6.14402 1.05895 6.71502C0.386953 7.28602 0.00195312 8.11902 0.00195312 9.00102V15.299C0.00195312 16.955 0.591953 18.563 1.66395 19.827L4.23095 22.849C4.61995 23.237 5.05095 23.579 5.51395 23.866C5.67795 23.968 5.85995 24.016 6.03895 24.016C6.37395 24.016 6.70095 23.848 6.88995 23.542C7.18095 23.072 7.03595 22.456 6.56595 22.166V22.164Z"
            fill="#3969B5" />
    </g>
    <defs>
        <clipPath id="clip0_663_497">
            <rect width="24" height="24" fill="white" />
        </clipPath>
    </defs>
</svg>
    