<svg width="24" height="24" viewBox="0 0 24 24" fill="none" xmlns="http://www.w3.org/2000/svg">
    <g clip-path="url(#clip0_663_470)">
        <path
            d="M17.9792 13.0239C16.8602 11.9079 15.1662 11.7059 13.8392 12.4169L9.00722 7.58491V4.49891C9.00722 3.48591 8.46222 2.54291 7.58522 2.03691L4.60422 0.317912C3.67322 -0.220088 2.49222 -0.0630884 1.73022 0.696912L0.705223 1.72391C-0.0557774 2.48291 -0.210777 3.66491 0.326223 4.59591L2.04522 7.57691C2.55122 8.45491 3.49522 8.99991 4.50722 8.99991H7.59322L12.4192 13.8259C12.1412 14.3339 11.9932 14.9049 11.9932 15.4999C11.9932 16.4359 12.3582 17.3139 13.0212 17.9759L18.0352 22.9759C18.6932 23.6319 19.5892 23.9999 20.5152 23.9999C21.5002 23.9999 22.6032 23.4789 23.2332 22.7109C24.3592 21.3389 24.2092 19.2359 22.8922 17.9239L17.9792 13.0239ZM3.77722 6.57891L2.05822 3.59691C1.97222 3.44891 1.99722 3.25991 2.11922 3.13791L3.14422 2.11191C3.26622 1.99091 3.45522 1.96491 3.60422 2.05091L6.58422 3.77091C6.84422 3.92091 7.00622 4.20091 7.00622 4.49991V6.99991H4.50622C4.20622 6.99991 3.92722 6.83891 3.77722 6.57891ZM21.6872 21.4419C21.4112 21.7789 21.0212 21.9759 20.5902 21.9979C20.1692 22.0179 19.7492 21.8589 19.4482 21.5599L14.4342 16.5599C14.1502 16.2769 13.9942 15.9009 13.9942 15.4999C13.9942 15.0989 14.1512 14.7239 14.4342 14.4399C14.7282 14.1469 15.1152 13.9999 15.5012 13.9999C15.8872 13.9999 16.2732 14.1469 16.5672 14.4399L21.4812 19.3389C22.0772 19.9339 22.1672 20.8569 21.6872 21.4419ZM10.4372 17.0989C10.8272 17.4909 10.8262 18.1229 10.4352 18.5129L5.95822 22.9749C5.30022 23.6309 4.40522 23.9989 3.47822 23.9989C2.59722 23.9989 1.39022 23.4779 0.760223 22.7089C-0.364777 21.3379 -0.215777 19.2349 1.10222 17.9229L6.77022 12.2679C7.16022 11.8779 7.79422 11.8779 8.18422 12.2699C8.57422 12.6609 8.57322 13.2939 8.18222 13.6839L2.51322 19.3389C1.91722 19.9339 1.82522 20.8569 2.30522 21.4409C2.58222 21.7789 2.97222 21.9759 3.40322 21.9979C3.82922 22.0169 4.24422 21.8589 4.54522 21.5599L9.02322 17.0979C9.41422 16.7079 10.0462 16.7079 10.4382 17.0999L10.4372 17.0989ZM9.89322 4.63391C10.8132 2.29091 12.9172 0.559912 15.3842 0.116912C16.2472 -0.0370884 17.1142 -0.0400884 17.9632 0.110912C18.6292 0.228912 19.1662 0.698912 19.3652 1.33491C19.5942 2.06391 19.3652 2.86591 18.7532 3.47991L16.4182 5.72191C15.9332 6.20691 15.8542 6.98291 16.2532 7.47091C16.4832 7.75191 16.8062 7.91591 17.1642 7.93491C17.5132 7.95191 17.8582 7.82291 18.1112 7.56991L20.7252 5.04891C21.2112 4.56291 21.9382 4.38191 22.6182 4.59891C23.2822 4.80791 23.7692 5.36091 23.8902 6.03991C24.0402 6.88791 24.0382 7.75691 23.8842 8.62091C23.6032 10.1929 22.7842 11.6569 21.5782 12.7439C21.3872 12.9159 21.1472 13.0009 20.9092 13.0009C20.6362 13.0009 20.3632 12.8899 20.1662 12.6709C19.7962 12.2609 19.8292 11.6279 20.2392 11.2579C21.1162 10.4679 21.7112 9.40591 21.9152 8.26991C22.0132 7.72191 22.0272 7.17491 21.9582 6.63791L19.5132 8.99691C18.8782 9.63391 17.9832 9.98091 17.0652 9.93291C16.1492 9.88691 15.2892 9.45191 14.7052 8.73791C13.6632 7.46391 13.8012 5.51191 15.0192 4.29491L17.3532 2.05291L17.3622 2.04391C16.8272 1.97591 16.2812 1.98991 15.7372 2.08791C13.9492 2.40791 12.4242 3.66491 11.7552 5.36691C11.5542 5.88091 10.9732 6.13391 10.4592 5.93191C9.94522 5.72991 9.69122 5.14991 9.89422 4.63591L9.89322 4.63391Z"
            fill="#3969B5" />
    </g>
    <defs>
        <clipPath id="clip0_663_470">
            <rect width="24" height="24" fill="white" />
        </clipPath>
    </defs>
</svg>
    