<svg width="24" height="24" viewBox="0 0 24 24" fill="none" xmlns="http://www.w3.org/2000/svg">
    <g clip-path="url(#clip0_663_473)">
        <path
            d="M20 14H13V9.99999H14.45C15.14 9.99999 15.49 9.16999 15 8.67999L12.55 6.22999C12.25 5.92999 11.76 5.92999 11.45 6.22999L9 8.67999C8.51 9.16999 8.86 9.99999 9.55 9.99999H11V14H4C1.79 14 0 15.79 0 18V20C0 22.21 1.79 24 4 24H20C22.21 24 24 22.21 24 20V18C24 15.79 22.21 14 20 14ZM22 20C22 21.1 21.1 22 20 22H4C2.9 22 2 21.1 2 20V18C2 16.9 2.9 16 4 16H20C21.1 16 22 16.9 22 18V20ZM20 -9.76492e-06H4C1.79 -9.76492e-06 0 1.78999 0 3.99999V5.99999C0 8.20999 1.79 9.99999 4 9.99999H5C5.27 9.99999 5.52 9.88999 5.71 9.70999L13.41 1.99999H16.58L14.65 3.92999C14.26 4.31999 14.26 4.94999 14.65 5.33999C14.85 5.53999 15.1 5.62999 15.36 5.62999C15.62 5.62999 15.87 5.52999 16.07 5.33999L19.42 1.98999H20.01C20.71 1.98999 21.33 2.34999 21.69 2.89999L17.31 7.27999C17.12 7.46999 17.02 7.71999 17.02 7.98999V8.98999C17.02 9.53999 17.47 9.98999 18.02 9.98999H20.02C22.23 9.98999 24.02 8.19999 24.02 5.98999V3.98999C24.02 1.77999 22.23 -0.0100098 20.02 -0.0100098L20 -9.76492e-06ZM2 3.99999C2 2.89999 2.9 1.99999 4 1.99999H4.59L2 4.58999V3.99999ZM4.59 7.99999H4C3.3 7.99999 2.68 7.63999 2.32 7.08999L7.41 1.99999H10.58L4.58 7.99999H4.59ZM22 5.99999C22 7.09999 21.1 7.99999 20 7.99999H19.41L22 5.40999V5.99999Z"
            fill="#3969B5" />
    </g>
    <defs>
        <clipPath id="clip0_663_473">
            <rect width="24" height="24" fill="white" />
        </clipPath>
    </defs>
</svg>
    