<svg width="24" height="24" viewBox="0 0 24 24" fill="none" xmlns="http://www.w3.org/2000/svg">
<path d="M10.9683 15.003C11.1063 15.538 10.7843 16.083 10.2493 16.22C7.15825 17.016 4.99925 19.803 4.99925 23C4.99925 23.552 4.55125 24 3.99925 24C3.44725 24 2.99925 23.552 2.99925 23C2.99925 18.891 5.77525 15.307 9.74925 14.284C10.2883 14.147 10.8293 14.468 10.9673 15.003H10.9683ZM23.7073 23.707C23.5123 23.902 23.2563 24 23.0003 24C22.7443 24 22.4883 23.902 22.2933 23.707L0.29325 1.70701C-0.09775 1.31601 -0.09775 0.684006 0.29325 0.293006C0.68425 -0.0979942 1.31625 -0.0979942 1.70725 0.293006L6.13925 4.72501C6.72625 2.02801 9.12925 5.84873e-06 12.0003 5.84873e-06C15.3093 5.84873e-06 18.0003 2.69101 18.0003 6.00001C18.0003 8.87101 15.9723 11.274 13.2753 11.861L23.7073 22.293C24.0983 22.684 24.0983 23.316 23.7073 23.707ZM8.06525 6.65101L11.3493 9.93501C11.5643 9.97001 11.7813 10 12.0003 10C14.2063 10 16.0003 8.20601 16.0003 6.00001C16.0003 3.79401 14.2063 2.00001 12.0003 2.00001C9.79425 2.00001 8.00025 3.79401 8.00025 6.00001C8.00025 6.21801 8.03025 6.43601 8.06525 6.65101Z" fill="#3969B5"/>
</svg>
