<svg width="20" height="21" viewBox="0 0 20 21" fill="none" xmlns="http://www.w3.org/2000/svg">
    <mask id="mask0_540_245" style="mask-type:alpha" maskUnits="userSpaceOnUse" x="0" y="0"
        width="20" height="21">
        <rect y="0.5" width="20" height="20" fill="#D9D9D9" />
    </mask>
    <g mask="url(#mask0_540_245)">
        <path
            d="M8.83268 11.9998L7.04102 10.2082C6.88824 10.0554 6.69379 9.979 6.45768 9.979C6.22157 9.979 6.02713 10.0554 5.87435 10.2082C5.72157 10.3609 5.64518 10.5554 5.64518 10.7915C5.64518 11.0276 5.72157 11.2221 5.87435 11.3748L8.24935 13.7498C8.41602 13.9165 8.61046 13.9998 8.83268 13.9998C9.0549 13.9998 9.24935 13.9165 9.41602 13.7498L14.1243 9.0415C14.2771 8.88873 14.3535 8.69428 14.3535 8.45817C14.3535 8.22206 14.2771 8.02761 14.1243 7.87484C13.9716 7.72206 13.7771 7.64567 13.541 7.64567C13.3049 7.64567 13.1105 7.72206 12.9577 7.87484L8.83268 11.9998ZM9.99935 18.8332C8.84657 18.8332 7.76324 18.6144 6.74935 18.1769C5.73546 17.7394 4.85352 17.1457 4.10352 16.3957C3.35352 15.6457 2.75977 14.7637 2.32227 13.7498C1.88477 12.7359 1.66602 11.6526 1.66602 10.4998C1.66602 9.34706 1.88477 8.26373 2.32227 7.24984C2.75977 6.23595 3.35352 5.354 4.10352 4.604C4.85352 3.854 5.73546 3.26025 6.74935 2.82275C7.76324 2.38525 8.84657 2.1665 9.99935 2.1665C11.1521 2.1665 12.2355 2.38525 13.2493 2.82275C14.2632 3.26025 15.1452 3.854 15.8952 4.604C16.6452 5.354 17.2389 6.23595 17.6764 7.24984C18.1139 8.26373 18.3327 9.34706 18.3327 10.4998C18.3327 11.6526 18.1139 12.7359 17.6764 13.7498C17.2389 14.7637 16.6452 15.6457 15.8952 16.3957C15.1452 17.1457 14.2632 17.7394 13.2493 18.1769C12.2355 18.6144 11.1521 18.8332 9.99935 18.8332ZM9.99935 17.1665C11.8605 17.1665 13.4368 16.5207 14.7285 15.229C16.0202 13.9373 16.666 12.3609 16.666 10.4998C16.666 8.63873 16.0202 7.06234 14.7285 5.77067C13.4368 4.479 11.8605 3.83317 9.99935 3.83317C8.13824 3.83317 6.56185 4.479 5.27018 5.77067C3.97852 7.06234 3.33268 8.63873 3.33268 10.4998C3.33268 12.3609 3.97852 13.9373 5.27018 15.229C6.56185 16.5207 8.13824 17.1665 9.99935 17.1665Z"
            fill="#4C8CF1" />
    </g>
</svg>
    